<svg id="Layer_1" data-name="Layer 1" xmlns="http://www.w3.org/2000/svg" xmlns:xlink="http://www.w3.org/1999/xlink" viewBox="0 0 973 1080"><defs><style>.cls-1,.cls-11,.cls-13,.cls-6,.cls-8{fill:none;}.cls-2{clip-path:url(#clip-path);}.cls-3{clip-path:url(#clip-path-2);}.cls-4{opacity:0.2;}.cls-10,.cls-5,.cls-9{opacity:0.7;}.cls-10,.cls-21,.cls-5,.cls-9{isolation:isolate;}.cls-5{fill:url(#linear-gradient);}.cls-6{stroke:#a3a0fb;}.cls-11,.cls-13,.cls-6,.cls-8{stroke-width:2px;}.cls-7{fill:#fff;}.cls-8{stroke:#a4a1fb;}.cls-9{fill:url(#linear-gradient-2);}.cls-10{fill:url(#linear-gradient-3);}.cls-11{stroke:#54d8ff;}.cls-12{opacity:0.51;}.cls-13{stroke:#55d8fe;}.cls-14{fill:url(#linear-gradient-4);}.cls-15{fill:#50be86;}.cls-16{fill:#595959;}.cls-17{fill:#a885d8;}.cls-18{fill:#f4cfb2;}.cls-19{fill:#e3e3e3;}.cls-20{fill:#414657;}.cls-21{opacity:0.2;}.cls-22{fill:#ffd201;}</style><clipPath id="clip-path"><rect class="cls-1" x="2.5" y="0.5" width="970" height="1076"/></clipPath><clipPath id="clip-path-2"><rect class="cls-1" x="3" y="-88" width="970.49" height="1164.59"/></clipPath><linearGradient id="linear-gradient" x1="-275.59" y1="1081.49" x2="-275.59" y2="1080.49" gradientTransform="matrix(3245.59, 0, 0, -661.12, 895406.38, 715257.84)" gradientUnits="userSpaceOnUse"><stop offset="0" stop-color="#a7a7ff"/><stop offset="1" stop-color="#fff" stop-opacity="0"/></linearGradient><linearGradient id="linear-gradient-2" x1="-275.59" y1="1081.49" x2="-275.59" y2="1080.49" gradientTransform="matrix(3245.59, 0, 0, -661.12, 895252.31, 715540.5)" xlink:href="#linear-gradient"/><linearGradient id="linear-gradient-3" x1="-275.59" y1="1081.64" x2="-275.59" y2="1080.64" gradientTransform="matrix(3245.58, 0, 0, -502.88, 895216.53, 544217.85)" gradientUnits="userSpaceOnUse"><stop offset="0" stop-color="#54d8ff"/><stop offset="1" stop-color="#fff" stop-opacity="0"/></linearGradient><linearGradient id="linear-gradient-4" x1="-275.59" y1="1081.64" x2="-275.59" y2="1080.64" gradientTransform="matrix(3245.58, 0, 0, -502.88, 894848.08, 544351.7)" xlink:href="#linear-gradient-3"/></defs><title>img_login</title><g class="cls-2"><g class="cls-3"><g id="Group_4" data-name="Group 4"><g id="Products_Sold_Graph" data-name="Products Sold Graph" class="cls-4"><path id="Filled.Graph" class="cls-5" d="M-662.09,822.17V557.51S-287.84,731.11,11.19,742c323.34-10.57,379.33-84.86,631.19-184.5,215.22-83.06,429.86-105.85,635.87-100s384.58,95.58,627.92,104.78c429.3-37,648.33-224.32,677.33-302.54V920.6l-3245.59.3Z"/><path id="Line.Graph" class="cls-6" d="M-659.11,558.2S-287.28,735.94,6.72,739.76,413.64,648,638.83,558.43s439.26-104.9,636.34-101.88,388.68,96.91,630.84,101.9,633.93-162.32,677.49-301.76"/><g id="Mar.Ellipse"><circle class="cls-7" cx="639.43" cy="559.67" r="14.87"/><circle class="cls-8" cx="639.43" cy="559.67" r="13.87"/></g><g id="Feb.Ellipse"><circle class="cls-7" cx="209.4" cy="724.32" r="14.87"/><circle class="cls-8" cx="209.4" cy="724.32" r="13.87"/></g></g><g id="Products_Sold_Graph-2" data-name="Products Sold Graph-2" class="cls-4"><path id="Filled.Graph-2" class="cls-9" d="M-816.16,1104.83V840.16s374.25,173.6,673.28,184.5c323.34-10.56,379.33-84.86,631.19-184.5,215.23-83,429.87-105.84,635.88-100S1508.76,835.77,1752.11,845c429.3-37,648.32-224.31,677.33-302.53v660.83l-3245.6.29Z"/><path id="Line.Graph-2" class="cls-6" d="M-813.18,840.85s371.84,177.74,665.83,181.57S259.58,930.7,484.76,841.09,924,736.19,1121.1,739.2,1509.79,836.12,1752,841.1s633.92-162.32,677.49-301.76"/><g id="Mar.Ellipse-2"><circle class="cls-7" cx="485.37" cy="842.33" r="14.87"/><circle class="cls-8" cx="485.37" cy="842.33" r="13.87"/></g></g><g id="Total_Views_Graph" data-name="Total Views Graph"><path id="Filled.Graph-3" class="cls-10" d="M-849.38,687.89V283.74S-484.11,685.55-184,700.67c334.79-3.4,337.54-208.6,631.73-320.92C694,291.55,881.91,532.14,1087.92,538s348.19-164.89,629.25-176.76c364.15,17.87,656.36,246,679,258.28v166.8l-3245.58.29Z"/><path id="Line.Graph-3" class="cls-11" d="M-851.39,287.16s376.64,409.22,671,413.05S214.64,459.1,451,376.52,892.38,534,1089.71,537,1476,356.67,1718.43,361.66s519.66,143.7,672.92,253.13"/><g id="Mar.Ellipse-3" class="cls-12"><circle class="cls-7" cx="547.81" cy="360.1" r="14.87"/><circle class="cls-13" cx="547.81" cy="360.1" r="13.87"/></g></g><g id="Total_Views_Graph-2" data-name="Total Views Graph-2" class="cls-4"><path id="Filled.Graph-4" class="cls-14" d="M-1217.83,821.74V417.59S-852.56,819.41-552.5,834.53C-217.71,831.12-215,625.93,79.23,513.6,325.52,425.4,513.45,666,719.47,671.86S1067.66,507,1348.72,495.11c364.15,17.86,656.36,246,679,258.27v166.8l-3245.58.29Z"/><path id="Line.Graph-4" class="cls-11" d="M-1218.63,421s376.65,409.22,671,413.05S-152.6,593,83.75,510.37,525.14,667.88,722.47,670.89s386.26-180.37,628.72-175.38,519.67,143.7,672.92,253.13"/><g id="Apr.Ellipse"><circle class="cls-7" cx="842.77" cy="653.65" r="14.87"/><circle class="cls-13" cx="842.77" cy="653.65" r="13.87"/></g><g id="Mar.Ellipse-4"><circle class="cls-7" cx="80.69" cy="509.84" r="14.87"/><circle class="cls-13" cx="80.69" cy="509.84" r="13.87"/></g></g></g></g><g id="Group_472" data-name="Group 472"><g id="Group_466" data-name="Group 466"><g id="Group_463" data-name="Group 463"><path id="Path_3759" data-name="Path 3759" class="cls-15" d="M428,580.1,412.27,746.54l9.34,146.81h26.56l5.33-144.48,18.64-98.37,8.33,98,13.87,144.83H520.9L518.61,749l13.54-167.36Z"/></g><g id="Group_464" data-name="Group 464"><path id="Path_3760" data-name="Path 3760" class="cls-16" d="M440.86,924.86s-1.39-9.74,26.47-14.44,27-17.07,27-17.07H520.9v31.51Z"/></g><g id="Group_465" data-name="Group 465"><path id="Path_3761" data-name="Path 3761" class="cls-16" d="M368.13,924.86s-1.4-9.74,26.47-14.44,27-17.07,27-17.07h26.56v31.51Z"/></g></g><path id="Path_3744" data-name="Path 3744" class="cls-17" d="M528,534.6l2.14-118.1C467.43,403,422.91,418,422.91,418c0,5.42,4.79,164.44,4.79,164.44h96.43C551.43,582.41,525.85,561.4,528,534.6Z"/><g id="Group_471" data-name="Group 471"><g id="Group_467" data-name="Group 467"><path id="Path_3762" data-name="Path 3762" class="cls-18" d="M426.28,365.83,434,352.36a16.45,16.45,0,0,0,1.71-4.27l5-20.66,45.43-3.62,5.46,68.43c.82,16.5,8.35,26.37,8.35,26.37l-40.66,11.2L457.79,409c.16-3.61-1-7-3.7-7.64l-9.51-1.85a16.13,16.13,0,0,1-13.05-15.4l-.35-11.91-3.53-1.78a3.28,3.28,0,0,1-1.46-4.4Z"/></g><g id="Group_468" data-name="Group 468"><path id="Path_3763" data-name="Path 3763" class="cls-16" d="M502.5,327.72c-18.73-23.47-59.38-6.47-66.72-18.7a1,1,0,0,0-1.4-.41,1.08,1.08,0,0,0-.49.62c-2.45,9.17-1.21,15.95,6.74,18.73L456,331.79a12.09,12.09,0,0,1,9,14l-2.57,13.73c-5.39,23.36-10.72,20.15-14.16,16.83-5.12-4.94-17-4.14-17-4.14l.35,11.91a16.12,16.12,0,0,0,13.05,15.4l8.08,1.57c11.78,1.62,16.09-27.31,17.2-37a8.78,8.78,0,0,1,3.92-6.5,6.72,6.72,0,0,1,6.46-.4c5.22,2.14,4.57,8.81,1.38,19.58s10.05,15.54,10.05,15.54C502.19,375.4,520.8,350.64,502.5,327.72Z"/></g><g id="Group_469" data-name="Group 469"><path id="Path_3764" data-name="Path 3764" class="cls-7" d="M431.33,377.22s7.25.44,11.19-.52c-.22,2.77-4.19,7.88-11,7.38Z"/></g><g id="Group_470" data-name="Group 470"><circle id="Ellipse_280" data-name="Ellipse 280" cx="444.49" cy="354.24" r="1.89"/></g></g><path id="Path_3743" data-name="Path 3743" class="cls-17" d="M422.91,418c-23.22,5.5-26.15,71-35.73,113.13L321.69,570l7.72,31.61s3-11.5,17-15.33,18.84-.31,28.58-9.9,14.2-11.17,25.7-14.36,17.88-15,27.46-45S450.28,411.49,422.91,418Z"/><path id="Path_3747" data-name="Path 3747" class="cls-7" d="M459,412.38l8.59,11.84L456,434.65l-6.49-22.07,8-7.22Z"/><path id="Path_3748" data-name="Path 3748" class="cls-7" d="M493.8,412.38l-15.65,11.09,14,12.7,10.8-24-9.65-9.05Z"/><path id="Path_3749" data-name="Path 3749" class="cls-19" d="M467.59,424.22l10.56-.76,4.42,4-3.6,8.68H468.13l-4.2-8.65Z"/><path id="Path_3750" data-name="Path 3750" class="cls-7" d="M473.51,548.82,457.88,566.6l-10.44-17.78L468.5,436.17h10Z"/><g id="Group_460" data-name="Group 460"><g id="Group_459" data-name="Group 459"><path id="Path_3751" data-name="Path 3751" class="cls-20" d="M411.67,493.46H263.45V419.35a74.11,74.11,0,1,1,148.22,0Zm-131.83-16.4H395.28V419.35a57.72,57.72,0,1,0-115.44,0Z"/></g><path id="Path_3752" data-name="Path 3752" class="cls-21" d="M395.28,433.52v43.55H279.84V433.52H263.45v59.94H411.67V433.52Z"/><rect id="Rectangle_768" data-name="Rectangle 768" class="cls-22" x="241" y="456.32" width="193.12" height="163.95" rx="20"/><path id="Path_3753" data-name="Path 3753" class="cls-20" d="M358.11,530.76a18.36,18.36,0,1,0-25,17.07l-8.83,28.58h30.93l-8.84-28.58A18.32,18.32,0,0,0,358.11,530.76Z"/></g><path id="Path_3755" data-name="Path 3755" class="cls-18" d="M427.48,574.86l-10.86,6s-26.59-5.51-38.56,11.37l1.43,3.6a10.49,10.49,0,0,0,13.41,6c4.76-1.73,10.93-3.63,17.5-3.34,16,.72,23.94-9.57,23.94-9.57Z"/><path id="Path_3757" data-name="Path 3757" class="cls-17" d="M530.18,416.5C509.83,413.55,502,489,492.38,531.1l-72,40.77,14.26,29.7s3-11.5,17-15.32,18.84-.32,28.58-9.9,14.21-11.18,25.7-14.37,17.88-15,27.46-45S558,420.54,530.18,416.5Z"/></g></g></svg>