<svg id="Layer_1" data-name="Layer 1" xmlns="http://www.w3.org/2000/svg" viewBox="0 0 215.13 215.13"><title>calender_icon</title><g id="Shape_1" data-name="Shape 1"><path d="M202,29.82H174.25V19.27A10.29,10.29,0,0,0,163.84,9a10.41,10.41,0,0,0-10.41,10.41V29.82H77.1V19.41a10.41,10.41,0,1,0-20.82,0V29.82H7.7V203.31a20.82,20.82,0,0,0,20.82,20.81H222.83V50.64A20.82,20.82,0,0,0,202,29.82ZM153.43,40.23V54.11a10.41,10.41,0,0,0,20.82,0V50.64h0V40.37a17.05,17.05,0,0,1,6.94,13.74,17.35,17.35,0,1,1-27.76-13.88Zm-97.15,0V54.11a10.41,10.41,0,0,0,20.82,0V50.64h0V40.23a17.35,17.35,0,1,1-20.82,0ZM209,210.25H32a10.41,10.41,0,0,1-10.41-10.41V92.27h177A10.41,10.41,0,0,1,209,102.68Z" transform="translate(-7.7 -9)"/></g></svg>