<?xml version="1.0" encoding="utf-8"?>
<!-- Generator: Adobe Illustrator 23.0.2, SVG Export Plug-In . SVG Version: 6.00 Build 0)  -->
<svg version="1.1" id="Layer_1" xmlns="http://www.w3.org/2000/svg" xmlns:xlink="http://www.w3.org/1999/xlink" x="0px" y="0px"
	 viewBox="0 0 61 61" style="enable-background:new 0 0 61 61;" xml:space="preserve">
<path d="M53.3,12.6c0-0.4,0-0.8-0.1-1.2c-0.5-2.5-2.7-4.2-5.2-4.2h-8.8V5.4l0,0c0-1.9-1.6-3.5-3.5-3.5c0,0,0,0,0,0H25.2
	c-1.9,0-3.5,1.6-3.5,3.5c0,0,0,0,0,0v1.7h-0.5c-2.8,0-5.6,0-8.4,0c-2.6,0-4.7,1.9-5.1,4.5c-0.1,1.4-0.1,2.8-0.1,4.2l0,0h3.5v43.2
	h38.6V15.8h3.5V12.6z M21.7,22.6V52c0,1-0.7,1.8-1.7,1.9c-1,0.1-1.8-0.7-1.9-1.6V37.3l0,0c0-4.9,0-9.8,0-14.8v-0.1
	c0-1,0.8-1.8,1.7-1.8c1,0,1.8,0.8,1.8,1.7l0,0L21.7,22.6z M30.5,53.9c-0.9,0-1.7-0.7-1.7-1.6V22.6c-0.1-0.8,0.5-1.6,1.3-1.8
	c0.1,0,0.2-0.1,0.4-0.1c1-0.1,1.8,0.6,1.9,1.6c0,0,0,0,0,0v14.9l0,0c0,4.9,0,9.8,0,14.7v0.1C32.3,53.1,31.5,53.9,30.5,53.9
	C30.5,53.9,30.5,53.9,30.5,53.9z M42.8,22.6V52c0.1,0.9-0.5,1.7-1.3,1.9c-0.1,0-0.2,0-0.3,0.1c-1,0.1-1.8-0.7-1.9-1.6V37.3l0,0
	c0-4.9,0-9.8,0-14.8v-0.1c0-1,0.8-1.8,1.7-1.8s1.8,0.8,1.8,1.7l0,0L42.8,22.6z M25.2,5.5L25.2,5.5l0,1.7h10.4V5.5l0,0v1.7H25.2V5.5z
	"/>
</svg>
