<?xml version="1.0" encoding="utf-8"?>
<!-- Generator: Adobe Illustrator 23.0.2, SVG Export Plug-In . SVG Version: 6.00 Build 0)  -->
<svg version="1.1" id="Layer_1" xmlns="http://www.w3.org/2000/svg" xmlns:xlink="http://www.w3.org/1999/xlink" x="0px" y="0px"
	 viewBox="0 0 61 61" style="enable-background:new 0 0 61 61;" xml:space="preserve">
<path id="Path_991" d="M45.2,1.9c1.6,0,3.1,0.7,4.2,1.8l7.6,7.6l0.5,0.5c2.2,2.3,2.2,5.9,0,8.2l0,0c-2.8,2.8-5.6,5.6-8.4,8.4
	L24.9,52.6c-0.2,0.2-0.4,0.3-0.7,0.4c-6.5,2-12.9,3.9-19.4,5.9c-0.5,0.2-1,0.2-1.5,0.1c-1-0.3-1.6-1.4-1.2-2.4l0,0
	c0.6-2,1.2-4.1,1.8-6.1c1.4-4.5,2.8-9.1,4.1-13.6c0.1-0.2,0.2-0.5,0.4-0.6C19.3,25.4,30.1,14.6,40.9,3.8C42,2.6,43.6,1.9,45.2,1.9z
	 M9.7,37.9c0,0.1-0.1,0.2-0.1,0.3L5.9,50.2c-0.1,0.2,0,0.4,0.2,0.5c1.4,1.4,2.9,2.9,4.3,4.3c0.1,0.2,0.4,0.2,0.6,0.1
	c3.5-1.1,7-2.1,10.5-3.2l1.8-0.5l-2.7-2.7L53.3,16l-1.4-1.4L19.2,47.3l-5.5-5.4L46.5,9.2l-1.4-1.4L12.3,40.5L9.7,37.9z"/>
</svg>
