<svg id="Layer_1" data-name="Layer 1" xmlns="http://www.w3.org/2000/svg" viewBox="0 0 102.39 96"><defs><style>.cls-1{fill:#eceff1;}.cls-2{fill:#388e3c;}.cls-3{fill:#2e7d32;}.cls-4{fill:#2e7d32;}</style></defs><path id="Path_3731" data-name="Path 3731" class="cls-1" d="M103.72,94.2H58.92a3.2,3.2,0,0,1-3.2-3.2V27a3.2,3.2,0,0,1,3.2-3.2h44.8a3.2,3.2,0,0,1,3.2,3.2V91A3.2,3.2,0,0,1,103.72,94.2Z" transform="translate(-4.53 -11)"/><g id="Group_477" data-name="Group 477"><path id="Path_3732" data-name="Path 3732" class="cls-2" d="M71.73,43H58.92a3.2,3.2,0,0,1,0-6.4H71.73a3.2,3.2,0,0,1,0,6.4Z" transform="translate(-4.53 -11)"/><path id="Path_3733" data-name="Path 3733" class="cls-2" d="M71.73,55.81H58.92a3.2,3.2,0,0,1,0-6.4H71.73a3.2,3.2,0,0,1,0,6.4Z" transform="translate(-4.53 -11)"/><path id="Path_3734" data-name="Path 3734" class="cls-2" d="M71.73,68.61H58.92a3.21,3.21,0,0,1,0-6.41H71.73a3.21,3.21,0,0,1,0,6.41Z" transform="translate(-4.53 -11)"/><path id="Path_3735" data-name="Path 3735" class="cls-2" d="M71.73,81.41H58.92a3.2,3.2,0,0,1,0-6.4H71.73a3.2,3.2,0,1,1,0,6.4Z" transform="translate(-4.53 -11)"/><path id="Path_3736" data-name="Path 3736" class="cls-2" d="M90.92,43h-6.4a3.2,3.2,0,0,1,0-6.4h6.4a3.2,3.2,0,1,1,0,6.4Z" transform="translate(-4.53 -11)"/><path id="Path_3737" data-name="Path 3737" class="cls-2" d="M90.92,55.81h-6.4a3.2,3.2,0,0,1,0-6.4h6.4a3.2,3.2,0,0,1,0,6.4Z" transform="translate(-4.53 -11)"/><path id="Path_3738" data-name="Path 3738" class="cls-2" d="M90.92,68.61h-6.4a3.21,3.21,0,0,1,0-6.41h6.4a3.21,3.21,0,0,1,0,6.41Z" transform="translate(-4.53 -11)"/><path id="Path_3739" data-name="Path 3739" class="cls-2" d="M90.92,81.41h-6.4a3.2,3.2,0,0,1,0-6.4h6.4a3.2,3.2,0,1,1,0,6.4Z" transform="translate(-4.53 -11)"/></g><path id="Path_3740" data-name="Path 3740" class="cls-3" d="M61,11.74a3.14,3.14,0,0,0-2.63-.68l-51.2,9.6A3.18,3.18,0,0,0,4.53,23.8V94.2a3.2,3.2,0,0,0,2.61,3.15l51.2,9.59a2.88,2.88,0,0,0,.59.06,3.2,3.2,0,0,0,3.2-3.2h0V14.2A3.21,3.21,0,0,0,61,11.74Z" transform="translate(-4.53 -11)"/><path id="Path_3741" data-name="Path 3741" class="cls-4" d="M48.53,69.68,38.42,58.14,48.65,45a3.2,3.2,0,1,0-4.92-4.1l-.13.17L34.12,53.23l-8-9.14a3.2,3.2,0,0,0-4.82,4.21h0l8.8,10.07L21.2,69.83a3.21,3.21,0,1,0,5.08,3.93l8.16-10.49,9.31,10.61a3.19,3.19,0,1,0,4.81-4.2Z" transform="translate(-4.53 -11)"/></svg>