<svg id="Layer_1" data-name="Layer 1" xmlns="http://www.w3.org/2000/svg" viewBox="0 0 87.69 99"><title>export_csv</title><g id="csv-file-format-extension"><path id="Path_3902" data-name="Path 3902" d="M94.05,44.42H91.67V32.72a1.91,1.91,0,0,0-.46-1.25L72.12,9.65h0a2.22,2.22,0,0,0-.42-.32l-.13-.08a1.8,1.8,0,0,0-.38-.16l-.11,0A2.3,2.3,0,0,0,70.63,9H23.73a3.88,3.88,0,0,0-3.88,3.88V44.42H17.47A5.55,5.55,0,0,0,11.9,50h0V78.81a5.55,5.55,0,0,0,5.56,5.55h2.37v19.76A3.89,3.89,0,0,0,23.72,108H87.78a3.89,3.89,0,0,0,3.89-3.88V84.38h2.38a5.54,5.54,0,0,0,5.54-5.56h0V50a5.54,5.54,0,0,0-5.54-5.55ZM23.71,12.88h45V32.75a1.94,1.94,0,0,0,1.94,1.94H87.78v9.73H23.71ZM53,65.56c-4.82-1.68-8-4.37-8-8.56,0-5,4.13-8.73,11-8.73a17.64,17.64,0,0,1,7.4,1.47L61.89,55a13.65,13.65,0,0,0-6.06-1.38c-2.84,0-4.22,1.29-4.22,2.79,0,1.85,1.64,2.67,5.38,4.09,5.12,1.89,7.53,4.56,7.53,8.64,0,4.86-3.74,9-11.7,9A19,19,0,0,1,44.6,76.4L45.93,71a16.72,16.72,0,0,0,7.27,1.8c3,0,4.6-1.25,4.6-3.14S56.43,66.81,53,65.56Zm-34.16-1.9A14.77,14.77,0,0,1,32.9,48.25a13.75,13.75,0,0,1,1.7,0,17,17,0,0,1,7.15,1.29l-1.34,5.2a14.44,14.44,0,0,0-5.51-1.09,8.73,8.73,0,0,0-9.29,8.12,8,8,0,0,0,0,1.47,8.66,8.66,0,0,0,7.78,9.45,8.25,8.25,0,0,0,1.49,0,16.37,16.37,0,0,0,5.46-.94l1,5.12a18.72,18.72,0,0,1-7.44,1.25A13.75,13.75,0,0,1,18.79,63.66Zm69,39.42H23.71V84.38H87.78ZM83.42,77.73H75.79l-9.28-29H73.7L77.23,61c1,3.44,1.89,6.75,2.58,10.36h.12c.73-3.48,1.64-6.93,2.62-10.24l3.7-12.38h7Z" transform="translate(-11.9 -9)"/></g></svg>