<svg id="Layer_1" data-name="Layer 1" xmlns="http://www.w3.org/2000/svg" viewBox="0 0 281.81 208.99"><title>guide_icon</title><g id="Group_490" data-name="Group 490"><path id="Path_3775" data-name="Path 3775" d="M22.63,45.06h1.24c25.45,0,50.83-.19,76.24.09a121.42,121.42,0,0,1,62.14,17.4,2.1,2.1,0,0,0,2.52,0A120.59,120.59,0,0,1,217,45.75c5.05-.44,10.14-.61,15.22-.63,23.32-.07,46.63,0,69.94,0h2.21V214A15.09,15.09,0,0,1,290.18,230a12.67,12.67,0,0,1-1.51,0H229a85.89,85.89,0,0,0-34.61,6.49A154,154,0,0,0,177.5,246c-3.22,1.94-6.2,4.28-9.31,6.36a7.4,7.4,0,0,1-9.37,0c-5.57-3.73-11.08-7.57-16.74-11.15A71.58,71.58,0,0,0,112,231a155.71,155.71,0,0,0-17.67-1c-18.51-.12-37,0-55.52,0a15.16,15.16,0,0,1-16.19-14,14.85,14.85,0,0,1,0-2.31V47.17ZM39.21,196.35v7.55a8.44,8.44,0,0,0,7.55,9.26,8.07,8.07,0,0,0,1.63,0H97.47a118.23,118.23,0,0,1,30.64,3.91,110.82,110.82,0,0,1,30,14.15,11.49,11.49,0,0,0,3.16,1.41,9.08,9.08,0,0,0,7.44-1.29,108.16,108.16,0,0,1,31.62-14.65,120,120,0,0,1,29.36-3.52h49.38a7.88,7.88,0,0,0,8.27-6.11,87,87,0,0,0,.57-10.7H230.74c-4.54,0-9.17.21-13.73.61a120.85,120.85,0,0,0-52.23,16.83,2.1,2.1,0,0,1-2.52,0,122.23,122.23,0,0,0-62.47-17.43c-19.72-.23-39.44,0-59.17-.06ZM234.78,78.68a30,30,0,0,0-22.62,9A23.61,23.61,0,0,0,205,104.18a8,8,0,0,0,5.72,7.42,7,7,0,0,0,8.41-4c.47-.91.71-2,1.15-3,1.27-2.78,2.46-5.61,3.93-8.28A8.91,8.91,0,0,1,231,91.92a21.93,21.93,0,0,1,6.42,0,11.12,11.12,0,0,1,7.27,17.72,39.75,39.75,0,0,1-4.39,4.78c-3,3-6.21,5.91-9.09,9a21.92,21.92,0,0,0-5.68,16.83,7,7,0,0,0,6.29,7,6.54,6.54,0,0,0,7.54-5.36c0-.2.06-.41.08-.61.12-.54.26-1.09.34-1.64a17.37,17.37,0,0,1,5.64-10.37c3.63-3.41,7.27-6.87,10.79-10.44a22.61,22.61,0,0,0,.25-32,23.15,23.15,0,0,0-4.33-3.44A32,32,0,0,0,234.78,78.68ZM80.57,95.49H113.7a8.4,8.4,0,0,0,0-16.79H47.5a8.81,8.81,0,0,0-3.63.91,8.39,8.39,0,0,0,3.63,15.9c11,0,22,0,33.07,0Zm.08,33.63h32.62a8.41,8.41,0,1,0,.59-16.8h-66a10.18,10.18,0,0,0-3.24.53,8.38,8.38,0,0,0,2.86,16.24c11,0,22.12,0,33.15,0Zm-16.54,16.8H47.89a8.41,8.41,0,0,0-.79,16.81c.26,0,.53,0,.79,0H80.17A8.41,8.41,0,1,0,81,145.92a5.08,5.08,0,0,0-.78,0Zm160.35,16.22a8.63,8.63,0,1,0,0-.54,4.87,4.87,0,0,0,0,.54Z" transform="translate(-22.6 -45)"/></g></svg>