<?xml version="1.0" encoding="utf-8"?>
<!-- Generator: Adobe Illustrator 23.0.2, SVG Export Plug-In . SVG Version: 6.00 Build 0)  -->
<svg version="1.1" id="Layer_1" xmlns="http://www.w3.org/2000/svg" xmlns:xlink="http://www.w3.org/1999/xlink" x="0px" y="0px"
	 viewBox="0 0 316 216.1" style="enable-background:new 0 0 316 216.1;" xml:space="preserve">
<title>hide</title>
<path d="M158.1,64.8H158c-23.8,0-43.1,19.3-43.1,43.1c0,0,0,0,0,0v0.1c-0.1,23.8,19.1,43.2,42.9,43.2c0,0,0,0,0.1,0h0.1
	c23.8,0,43.1-19.3,43.1-43.1c0,0,0,0,0,0v-0.1C201.1,84.3,181.9,64.9,158.1,64.8z"/>
<path d="M158,0C88.1,0.1,25.4,43,0,108.1c34,87.3,132.2,130.5,219.5,96.5c44.3-17.2,79.3-52.2,96.5-96.5C290.6,43,227.9,0.1,158,0z
	 M229.8,108.1c-0.1,39.7-32.3,71.9-72.1,71.8s-71.9-32.3-71.8-72.1C86,68.1,118.2,36,158,36c39.6,0.1,71.7,32.2,71.8,71.8V108.1z"/>
</svg>
