<svg id="Layer_1" data-name="Layer 1" xmlns="http://www.w3.org/2000/svg" viewBox="0 0 348 290.34">
<title>home_icon</title><g id="Group_265" data-name="Group 265">
<path id="Path_361" data-name="Path 361" d="M356,181.5H290.81V297.37A29.9,29.9,0,0,1,264.65,326a38,38,0,0,1-6.9.58H106.25a30.93,30.93,0,0,1-33-28.66c0-.25,0-.5,0-.75V181.58H8c.66-.7,1-1.12,1.43-1.51Q83.8,112.8,158.18,45.55a35.3,35.3,0,0,1,47.56,0q74.49,67.31,148.87,134.66A12.71,12.71,0,0,1,356,181.5Zm-250.21,0V265a15.47,15.47,0,0,0,15.68,15.25q.73,0,1.47-.09H216.8V197.09a15.56,15.56,0,0,0-15.34-15.79,16.75,16.75,0,0,0-2.35.14H105.79Z" transform="translate(-8 -36.34)"/>
</g></svg>