<svg id="Layer_1" data-name="Layer 1" xmlns="http://www.w3.org/2000/svg" viewBox="0 0 330.84 330.84"><title>langue</title><path id="Path_3832" data-name="Path 3832" d="M334.61,156.4a165.42,165.42,0,0,0-154-154V2h-22v.37a165.41,165.41,0,0,0-154,154H4.16v22h.38a165.42,165.42,0,0,0,154,154v.42h22v-.4a165.42,165.42,0,0,0,154-154H335V156.4ZM107.72,38.06A175.09,175.09,0,0,0,81.79,90.23H48.7A144.13,144.13,0,0,1,107.72,38.06ZM37.25,112.27H76a260.79,260.79,0,0,0-5.42,44.11H26.64A141.92,141.92,0,0,1,37.25,112.27ZM26.68,178.44H70.56A260.67,260.67,0,0,0,76,222.54H37.25a141.86,141.86,0,0,1-10.61-44.1Zm22.11,66.17H81.87a174.9,174.9,0,0,0,25.95,52.17,144.08,144.08,0,0,1-59.08-52.17ZM158.6,309.37c-22.74-6.06-42.2-30.42-54-64.76h54Zm0-86.85H98.33a246.3,246.3,0,0,1-5.71-44.1h65.94Zm0-66.16h-66a246.29,246.29,0,0,1,5.71-44.11h60.25Zm0-66.17H104.51c11.85-34.31,31.37-58.66,54.05-64.7Zm131.88,0H257.4a175,175,0,0,0-26-52.17,144.33,144.33,0,0,1,59,52.21ZM180.6,25.49c22.75,6,42.21,30.39,54,64.74h-54Zm0,86.84h60.21a247.35,247.35,0,0,1,5.73,44.11H180.6Zm0,66.17h65.94a243.63,243.63,0,0,1-5.73,44.11H180.6Zm0,130.93V244.61h54c-11.82,34.34-31.36,58.7-54,64.76Zm50.85-12.59a176.32,176.32,0,0,0,26-52.17h33.08a144.11,144.11,0,0,1-59.07,52.11ZM302,222.63H263.19a262.85,262.85,0,0,0,5.42-44.11H312.5a141.39,141.39,0,0,1-10.58,44Zm-33.35-66.17a263,263,0,0,0-5.42-44.11h38.73a142.27,142.27,0,0,1,10.56,44.11Z" transform="translate(-4.16 -2)"/></svg>