<svg id="Layer_1" data-name="Layer 1" xmlns="http://www.w3.org/2000/svg" viewBox="0 0 231.13 302.14"><title>deconnexion</title><g id="Group_570" data-name="Group 570"><path id="Path_3860" data-name="Path 3860" d="M80.25,167.93V282.74a8.56,8.56,0,0,0,9.61,9.66H248.38a8.59,8.59,0,0,0,9.59-9.66V265.85a8.46,8.46,0,0,1,8-8.91,7.36,7.36,0,0,1,1.05,0h9.06a8.38,8.38,0,0,1,8.54,8.22v35.7a18.5,18.5,0,0,1-18.72,18.27H73.36a19.21,19.21,0,0,1-19.58-16.79,22.59,22.59,0,0,1-.16-3.18V35.26A17.46,17.46,0,0,1,70.27,17a13.53,13.53,0,0,1,1.56,0H265.36a18.53,18.53,0,0,1,19.29,17.73q0,.73,0,1.47V70A8.48,8.48,0,0,1,277,79.25a7.91,7.91,0,0,1-1.46,0h-8.9A8.4,8.4,0,0,1,258,71.08a4.34,4.34,0,0,1,0-.51V52.77a8.48,8.48,0,0,0-7.82-9.08,7.94,7.94,0,0,0-1.29,0H89.47a8.47,8.47,0,0,0-9.18,7.69,7.42,7.42,0,0,0,0,1.49Q80.26,110.36,80.25,167.93Z" transform="translate(-53.6 -17)"/><path id="Path_3861" data-name="Path 3861" d="M195.8,256.8V212.43H134.61a19,19,0,0,1-18.81-18.72V142.18a19,19,0,0,1,18.58-18.6h61.31V79.24c.59.45.93.66,1.21.91q40.44,36.46,80.88,73a19.89,19.89,0,0,1,0,30.25Q237.34,219.73,196.87,256Z" transform="translate(-53.6 -17)"/></g></svg>