<svg id="Layer_1" data-name="Layer 1" xmlns="http://www.w3.org/2000/svg" viewBox="0 0 285.4 285.4">
<title>parametres_icon</title><g id="icon_setting" data-name="icon setting">
<path id="Path_108" data-name="Path 108" d="M276.05,134.57l19.61-37.45-25-25L233.24,91.76a64,64,0,0,0-19.62-7.14L199.35,41.81H163.66l-14.27,41A74.38,74.38,0,0,0,131.56,90L94.11,70.35,67.34,97.12,87,134.57a74,74,0,0,0-7.13,17.84l-41,14.26v35.68l41,14.27c1.79,7.13,5.36,12.48,7.13,19.63L67.34,273.7l25,25L129.76,279a64,64,0,0,0,19.63,7.14l14.27,41h35.68l14.27-41c7.13-1.78,12.48-5.35,19.63-7.14l37.45,19.63,25-25L276,236.25a63.63,63.63,0,0,0,7.13-19.61l41-14.27v-35.7l-41-14.26A74.37,74.37,0,0,0,276.05,134.57ZM181.5,238A52.56,52.56,0,0,1,128,186.43q0-1,0-1.92A52.56,52.56,0,0,1,179.58,131h1.92A52.56,52.56,0,0,1,235,182.59q0,1,0,1.92A52.56,52.56,0,0,1,183.42,238Q182.46,238.05,181.5,238Z" transform="translate(-38.8 -41.81)"/>
</g></svg>