<svg id="Layer_1" data-name="Layer 1" xmlns="http://www.w3.org/2000/svg" viewBox="0 0 84.5 96.52"><defs><style>.cls-1{fill:#e2e5e7;}.cls-2{fill:#b0b7bd;}.cls-3{fill:#cad1d8;}.cls-4{fill:#f15642;}.cls-5{fill:#fff;}</style></defs><g id="Mask_Group_4" data-name="Mask Group 4"><g id="pdf"><path id="Path_3879" data-name="Path 3879" class="cls-1" d="M27.05,10.46a6.05,6.05,0,0,0-6,6v84.44a6.05,6.05,0,0,0,6,6H87.41a6.05,6.05,0,0,0,6-6V34.6L69.26,10.46Z" transform="translate(-8.95 -10.46)"/><path id="Path_3880" data-name="Path 3880" class="cls-2" d="M75.32,34.6H93.4L69.28,10.46v18.1A6.06,6.06,0,0,0,75.32,34.6Z" transform="translate(-8.95 -10.46)"/><path id="Path_3881" data-name="Path 3881" class="cls-3" d="M93.42,52.7,75.32,34.6h18.1Z" transform="translate(-8.95 -10.46)"/><path id="Path_3882" data-name="Path 3882" class="cls-4" d="M81.37,88.9a3,3,0,0,1-3,3H12a3,3,0,0,1-3-3V58.73a3,3,0,0,1,3-3H78.33a3,3,0,0,1,3,3Z" transform="translate(-8.95 -10.46)"/><g id="Group_576" data-name="Group 576"><path id="Path_3883" data-name="Path 3883" class="cls-5" d="M22.1,67.62A1.65,1.65,0,0,1,23.74,66h5.57a6,6,0,1,1,0,12.06h-4V81.2a1.51,1.51,0,0,1-1.36,1.65h-.18a1.62,1.62,0,0,1-1.64-1.61V67.62ZM25.28,69v6h4a3,3,0,0,0,0-6Z" transform="translate(-8.95 -10.46)"/><path id="Path_3884" data-name="Path 3884" class="cls-5" d="M40,82.86a1.49,1.49,0,0,1-1.65-1.34.76.76,0,0,1,0-.15V67.67A1.63,1.63,0,0,1,40,66.17h5.52a8.35,8.35,0,0,1,.21,16.69Zm1.53-13.74v10.8h4a5.42,5.42,0,0,0,0-10.8Z" transform="translate(-8.95 -10.46)"/><path id="Path_3885" data-name="Path 3885" class="cls-5" d="M60.21,69.31v3.83h6.13a1.88,1.88,0,0,1,1.74,1.71,1.69,1.69,0,0,1-1.74,1.45H60.19v5a1.42,1.42,0,0,1-1.36,1.49h-.09A1.54,1.54,0,0,1,57,81.49a.66.66,0,0,0,0-.14V67.68a1.53,1.53,0,0,1,1.55-1.51h8.63a1.51,1.51,0,0,1,1.68,1.31,1.28,1.28,0,0,1,0,.19,1.66,1.66,0,0,1-1.69,1.64h-7Z" transform="translate(-8.95 -10.46)"/></g><path id="Path_3886" data-name="Path 3886" class="cls-3" d="M78.33,91.91H21v3H78.36a3,3,0,0,0,3-3v-3a3,3,0,0,1-3,3Z" transform="translate(-8.95 -10.46)"/></g></g></svg>