<svg id="Layer_1" data-name="Layer 1" xmlns="http://www.w3.org/2000/svg" viewBox="0 0 235.62 235.62"><title>plus</title><path id="Path_3848" data-name="Path 3848" d="M239.81,123.1A117.81,117.81,0,1,1,122.1,5.19h.39A117.81,117.81,0,0,1,239.81,123.1Zm-138.6,20.67v47.86a7,7,0,0,0,6.28,7.59,6.84,6.84,0,0,0,1.28,0H135a7,7,0,0,0,7.85-6,6.86,6.86,0,0,0,0-1.81V143.79h47.87a7,7,0,0,0,7.57-6.27,6.57,6.57,0,0,0,0-1.33V110a7,7,0,0,0-6-7.85,6.86,6.86,0,0,0-1.81,0H142.75V54.38a7,7,0,0,0-6.23-7.68,6.55,6.55,0,0,0-1.4,0h-26.2a7,7,0,0,0-7.75,6.13,6.87,6.87,0,0,0,0,1.57v47.73H53.22a6.94,6.94,0,0,0-7.5,6.35,5.92,5.92,0,0,0,0,1.19V136a7,7,0,0,0,6.17,7.72,7.4,7.4,0,0,0,1.56,0h47.7Z" transform="translate(-4.19 -5.19)"/></svg>