<?xml version="1.0" encoding="utf-8"?>
<!-- Generator: Adobe Illustrator 23.0.2, SVG Export Plug-In . SVG Version: 6.00 Build 0)  -->
<svg version="1.1" id="Layer_1" xmlns="http://www.w3.org/2000/svg" xmlns:xlink="http://www.w3.org/1999/xlink" x="0px" y="0px"
	 viewBox="0 0 61 61" style="enable-background:new 0 0 61 61;" xml:space="preserve">
<path id="Path_988" d="M30.4,11.1c-13,0-24.6,8-29.3,20.1c4.7,12.1,16.3,20.1,29.3,20.1c13,0,24.6-8,29.3-20.1
	C55,19.1,43.4,11.1,30.4,11.1z M30.4,44.6c-7.4,0-13.3-6-13.3-13.4c0-7.4,5.9-13.4,13.3-13.4c7.4,0,13.3,6,13.3,13.4
	C43.7,38.6,37.8,44.6,30.4,44.6z M30.4,23.1c-4.4,0-8,3.6-8,8c0,0,0,0,0,0c0,4.4,3.5,8,8,8c0,0,0,0,0,0c4.4,0,8-3.6,8-8c0,0,0,0,0,0
	C38.4,26.8,34.8,23.2,30.4,23.1C30.4,23.1,30.4,23.1,30.4,23.1z"/>
</svg>
