<svg id="Layer_1" data-name="Layer 1" xmlns="http://www.w3.org/2000/svg" viewBox="0 0 225.53 265.22"><title>mini_logo</title>
<path fill="#FE7900"  d="M220.11,36.06,153.7,19.31a49.16,49.16,0,0,0-37.49,5.5L81.58,45.5A49.16,49.16,0,0,0,59,75.89L37.81,159.57A9.9,9.9,0,1,0,57,164.42l21.12-83.7A29.52,29.52,0,0,1,91.71,62.49l34.62-20.68a29.52,29.52,0,0,1,22.5-3.3l66.41,16.75A19.83,19.83,0,0,1,229.6,79.31L196.27,211.46h0L187,248.27a19.83,19.83,0,0,1-24,14.36L59.26,236.43a19.82,19.82,0,0,1-14.36-24,9.9,9.9,0,1,0-19.2-4.85,39.66,39.66,0,0,0,28.71,48.1L158.09,281.8a39.66,39.66,0,0,0,48.1-28.71l9.32-37h0l33.29-132A39.64,39.64,0,0,0,220.11,36.06Z" transform="translate(-24.5 -17.78)"/>
<polygon fill="#FFFFFF" points="94.05 124.82 131.82 185.58 151.78 185.58 151.78 94.81 133.1 94.81 133.1 155.7 132.85 155.7 94.96 94.81 75.11 94.81 75.11 185.58 93.8 185.58 93.8 124.82 94.05 124.82"/>
</svg>