<svg id="Layer_1" data-name="Layer 1" xmlns="http://www.w3.org/2000/svg" viewBox="0 0 283.59 297.76"><title>importer_icon</title><path d="M106.63,129.17h40.18V259.85a10.05,10.05,0,0,0,10.06,10.06h40.24a10.05,10.05,0,0,0,10-10.06V129.15h40.21a10.06,10.06,0,0,0,7.56-16.67L184.56,32.06a10,10,0,0,0-14.15-1,9.87,9.87,0,0,0-1,1L99.07,112.48a10.07,10.07,0,0,0,7.56,16.69Z" transform="translate(-35.2 -28.62)"/><path d="M318.79,306.27V225.85H281v60.32H73V225.85H35.21v80.42a19.53,19.53,0,0,0,18.9,20.11H299.89a19.51,19.51,0,0,0,18.9-20.1Z" transform="translate(-35.2 -28.62)"/></svg>