<svg id="Layer_1" data-name="Layer 1" xmlns="http://www.w3.org/2000/svg" viewBox="0 0 318 317.93"><defs>
<style>.cls-1{fill:#ccc;}.cls-2{fill:#595959;}</style></defs><title>avatar</title>
<g id="user">
<path id="Path_3856" data-name="Path 3856" fill="#ccc" d="M122.71,270.3,75.28,296.16a43.28,43.28,0,0,0-7.61,5.42,158.83,158.83,0,0,0,204.1.53,42.4,42.4,0,0,0-8.36-5.6l-50.81-25.4a19.38,19.38,0,0,1-10.71-17.33V233.87a73.46,73.46,0,0,0,4.8-6.18,116.65,116.65,0,0,0,15.79-31.82,15.93,15.93,0,0,0,11.31-15.18V159.43a15.85,15.85,0,0,0-5.29-11.79v-30.7S234.85,69.1,170,69.1s-58.48,47.84-58.48,47.84v30.7a15.9,15.9,0,0,0-5.3,11.79v21.26a16,16,0,0,0,7.36,13.38,105.66,105.66,0,0,0,19.23,39.79V253.3A19.4,19.4,0,0,1,122.71,270.3Z" transform="translate(-11 -21.04)"/><g id="Group_568" data-name="Group 568">
<path id="Path_3857" data-name="Path 3857" fill="#595959" d="M172.74,21.06a158.85,158.85,0,0,0-105,280.5,41.51,41.51,0,0,1,7.53-5.36l47.43-25.87a19.37,19.37,0,0,0,10.1-17v-19.5A105.51,105.51,0,0,1,113.57,194a16,16,0,0,1-7.36-13.38V159.43a15.89,15.89,0,0,1,5.29-11.79v-30.7S105.15,69.1,170,69.1s58.48,47.84,58.48,47.84v30.7a15.89,15.89,0,0,1,5.29,11.79v21.26a15.94,15.94,0,0,1-11.31,15.18,116.93,116.93,0,0,1-15.79,31.82,75.61,75.61,0,0,1-4.8,6.18v19.92a19.36,19.36,0,0,0,10.71,17.33l50.81,25.4a43,43,0,0,1,8.34,5.59,158.91,158.91,0,0,0-99-281Z" transform="translate(-11 -21.04)"/></g></g>
</svg>