<svg id="Layer_1" data-name="Layer 1" xmlns="http://www.w3.org/2000/svg" viewBox="0 0 97.71 89.61"><defs>
<style>.cls-1{opacity:1;}.cls-2{fill:#ff7901; opacity:1}
.cls-3{fill:#ccc;opacity:0.25;isolation:isolate;}
</style></defs>
<g id="arrow" class="cls-1">
<g id="Group_577" data-name="Group 577">
<path id="Path_3888" data-name="Path 3888"   class=" cls-2 first" d="M8.19,60.59,50,102.43a2.81,2.81,0,0,0,4,.14l.14-.14,4.49-4.49a2.82,2.82,0,0,0,.14-4,1.85,1.85,0,0,0-.14-.14L23.36,58.52,58.65,23.24a2.84,2.84,0,0,0,.14-4l-.14-.13-4.49-4.49a2.82,2.82,0,0,0-4-.14,1.85,1.85,0,0,0-.14.14L8.19,56.45a2.84,2.84,0,0,0-.14,4Z" transform="translate(-7.29 -13.71)"/>
<path id="Path_3889" data-name="Path 3889" class="cls-3" d="M52.74,58.52a2.87,2.87,0,0,0,.9,2.07L95.5,102.43a2.83,2.83,0,0,0,4,.14l.15-.14,4.46-4.49a2.83,2.83,0,0,0,.15-4l-.15-.15L68.81,58.52,104.1,23.23a2.81,2.81,0,0,0,.15-4l-.15-.15-4.49-4.49a2.84,2.84,0,0,0-4-.14l-.13.14L53.64,56.45A2.86,2.86,0,0,0,52.74,58.52Z" transform="translate(-7.29 -13.71)"/>
</g></g></svg>