<svg id="Layer_1" data-name="Layer 1" xmlns="http://www.w3.org/2000/svg" viewBox="0 0 96 96"><path id="Path_3776" data-name="Path 3776" class="cls-1" d="M23,10.69v96H79l24-24v-72Z" transform="translate(-7 -10.69)"/><path id="Path_3777" data-name="Path 3777" class="cls-2" d="M79,82.69v24l24-24Z" transform="translate(-7 -10.69)"/><path id="Path_3778" data-name="Path 3778" class="cls-3" d="M55,106.69H79v-24Z" transform="translate(-7 -10.69)"/><path id="Path_3779" data-name="Path 3779" class="cls-4" d="M7,34.69v28H71v-28Z" transform="translate(-7 -10.69)"/><g id="Group_493" data-name="Group 493"><path id="Path_3780" data-name="Path 3780" class="cls-5" d="M23.08,43.22a1.66,1.66,0,0,0-1.62-.85,1.6,1.6,0,0,0-1.07.35,2.24,2.24,0,0,0-.65,1.12,9.54,9.54,0,0,0-.34,2c-.07.84-.1,1.86-.1,3.09,0,1.05,0,2.1.13,3.14A7,7,0,0,0,19.84,54a1.65,1.65,0,0,0,.7.88,1.93,1.93,0,0,0,1,.23,2.24,2.24,0,0,0,.85-.15,1.43,1.43,0,0,0,.68-.63A3.94,3.94,0,0,0,23.51,53a12.11,12.11,0,0,0,.16-2.25h3.46a15.51,15.51,0,0,1-.22,2.64,6.27,6.27,0,0,1-.8,2.19A4,4,0,0,1,24.45,57a6.21,6.21,0,0,1-2.78.53,6.44,6.44,0,0,1-3.09-.62,4.16,4.16,0,0,1-1.77-1.8A8.08,8.08,0,0,1,16,52.33a35.89,35.89,0,0,1,0-7.18,8.2,8.2,0,0,1,.79-2.82,4.45,4.45,0,0,1,1.77-1.85,6.12,6.12,0,0,1,3.09-.66,5.89,5.89,0,0,1,2.91.6,4,4,0,0,1,1.59,1.52,5.38,5.38,0,0,1,.66,2,16.65,16.65,0,0,1,.13,2H23.52A6.44,6.44,0,0,0,23.08,43.22Z" transform="translate(-7 -10.69)"/><path id="Path_3781" data-name="Path 3781" class="cls-5" d="M34.27,52.45a6.56,6.56,0,0,0,.09,1.08,2,2,0,0,0,.37.83,1.71,1.71,0,0,0,.71.53,2.79,2.79,0,0,0,1.11.19A2.25,2.25,0,0,0,38,54.57a2,2,0,0,0,.63-1.6,2.82,2.82,0,0,0-.15-1,2,2,0,0,0-.52-.75,3.56,3.56,0,0,0-.93-.61A12.12,12.12,0,0,0,35.56,50a12,12,0,0,1-2-.84,5.38,5.38,0,0,1-1.39-1.07,3.81,3.81,0,0,1-.83-1.41,6.19,6.19,0,0,1-.26-1.86,4.82,4.82,0,0,1,1.41-3.79,5.66,5.66,0,0,1,3.89-1.24,8.06,8.06,0,0,1,2.13.25,4.44,4.44,0,0,1,1.68.81,4,4,0,0,1,1.1,1.44,5.06,5.06,0,0,1,.39,2.1v.47h-3.3A3.56,3.56,0,0,0,38,43a1.6,1.6,0,0,0-1.44-.66,2.43,2.43,0,0,0-1,.17A1.54,1.54,0,0,0,35,43a1.59,1.59,0,0,0-.32.65,3.05,3.05,0,0,0-.08.74,2.48,2.48,0,0,0,.33,1.33,3,3,0,0,0,1.44,1L39,47.85a7.71,7.71,0,0,1,1.61.9,4.36,4.36,0,0,1,1,1A3.41,3.41,0,0,1,42.1,51a6.9,6.9,0,0,1,.15,1.44,4.71,4.71,0,0,1-1.58,3.94,6.91,6.91,0,0,1-4.38,1.24,5.73,5.73,0,0,1-4.17-1.27,4.94,4.94,0,0,1-1.26-3.65V52h3.46v.5Z" transform="translate(-7 -10.69)"/><path id="Path_3782" data-name="Path 3782" class="cls-5" d="M51.33,52.83h.07L54,40.16h3.58L53.59,57.29H49.15L45.22,40.16h3.72Z" transform="translate(-7 -10.69)"/></g></svg>