<svg id="Layer_1" data-name="Layer 1" xmlns="http://www.w3.org/2000/svg" viewBox="0 0 218.11 229"><title>download_icon</title><g id="Group_482" data-name="Group 482"><g id="Group_481" data-name="Group 481"><path id="Path_3768" data-name="Path 3768" d="M206.16,136.78a7.7,7.7,0,0,0-7-4.54h-30.9V31.73A7.73,7.73,0,0,0,160.5,24H129.55a7.73,7.73,0,0,0-7.73,7.73V132.25H90.89a7.73,7.73,0,0,0-5.81,12.83l54.12,61.85a7.71,7.71,0,0,0,10.88.74,8.61,8.61,0,0,0,.74-.74l54.12-61.85A7.7,7.7,0,0,0,206.16,136.78Z" transform="translate(-35.95 -24)"/></g></g><g id="Group_484" data-name="Group 484"><g id="Group_483" data-name="Group 483"><path id="Path_3769" data-name="Path 3769" d="M225,175.69v46.38H65V175.69H36v61.85A15,15,0,0,0,50.49,253h189a15,15,0,0,0,14.54-15.46h0V175.69Z" transform="translate(-35.95 -24)"/></g></g></svg>