<svg id="Layer_1" data-name="Layer 1" xmlns="http://www.w3.org/2000/svg" viewBox="0 0 71.83 99"><g id="pdf-file-format-symbol"><g id="Group_602" data-name="Group 602"><path id="Path_3903" data-name="Path 3903" d="M54.82,83.55a10.81,10.81,0,0,0-2.41.21V99.17a9.53,9.53,0,0,0,1.85.1,7.3,7.3,0,0,0,8-6.53,8.15,8.15,0,0,0,0-1.71,6.76,6.76,0,0,0-6-7.47A6.39,6.39,0,0,0,54.82,83.55Z" transform="translate(-20.35 -9)"/><path id="Path_3904" data-name="Path 3904" d="M34.24,83.47a9,9,0,0,0-2.2.21v6.95a8.17,8.17,0,0,0,1.78.14c2.83,0,4.58-1.43,4.58-3.84C38.39,84.76,36.89,83.47,34.24,83.47Z" transform="translate(-20.35 -9)"/><path id="Path_3905" data-name="Path 3905" d="M92.16,32.73a1.92,1.92,0,0,0-.46-1.26L72.61,9.67h0a1.7,1.7,0,0,0-.38-.33l-.15-.09a2.54,2.54,0,0,0-.38-.16l-.11,0A2.12,2.12,0,0,0,71.15,9H24.24a3.89,3.89,0,0,0-3.89,3.88v91.24A3.89,3.89,0,0,0,24.24,108H88.3a3.88,3.88,0,0,0,3.88-3.88V32.94A1.49,1.49,0,0,0,92.16,32.73ZM41.5,92.38a10.9,10.9,0,0,1-7.65,2.48,13.88,13.88,0,0,1-1.82-.1v8.42H26.76V79.94a44.46,44.46,0,0,1,7.2-.49,11.24,11.24,0,0,1,7.19,1.89,6.87,6.87,0,0,1,2.52,5.45A7.52,7.52,0,0,1,41.5,92.38Zm22.47,8a16.92,16.92,0,0,1-10.87,3,45.37,45.37,0,0,1-6.05-.35V79.94a48.22,48.22,0,0,1,7.2-.49A15.15,15.15,0,0,1,63.92,82a10.39,10.39,0,0,1,4,8.87A11.94,11.94,0,0,1,64,100.38ZM85.77,84h-9v5.37h8.45V93.7H76.74v9.47H71.37V79.63H85.76ZM24.24,74.92v-62h45V32.75a1.94,1.94,0,0,0,1.94,1.94H88.31V74.92Z" transform="translate(-20.35 -9)"/><path id="Path_3906" data-name="Path 3906" d="M76.18,50.72c-.11,0-2.85-.26-7-.26-1.32,0-2.64,0-4,.08A209.16,209.16,0,0,1,46.47,34.6c.06-.39.11-.69.13-.92A13.88,13.88,0,0,0,45,23.52a3.84,3.84,0,0,0-4-1.05,4.76,4.76,0,0,0-3.27,3.05c-.62,2.07.37,4.59,3,7.52,0,0,.94,1,2.55,2.56-1.07,5-3.81,15.84-5.14,21a27.47,27.47,0,0,0-7.78,6l-.13.15-.09.19a6.3,6.3,0,0,0-.46,4.53,3.11,3.11,0,0,0,1.86,1.76l.23.07a3.69,3.69,0,0,0,.58,0c1.61,0,5.62-.85,7.76-8.76l.54-2A63.59,63.59,0,0,1,64.3,53.49c3.49,2.59,7,5,10.33,7.07l.1.06a8,8,0,0,0,3.37.81h0A5,5,0,0,0,83,57.28l0-.18A5,5,0,0,0,82,53.16,8.73,8.73,0,0,0,76.18,50.72ZM32.44,66.47a.21.21,0,0,1,0-.06,3.61,3.61,0,0,1,.32-2,23.47,23.47,0,0,1,4.38-3.76C35.46,66,33.07,66.45,32.44,66.47ZM42.89,31h0c-2.53-2.81-2.49-4.21-2.35-4.68.22-.78,1.23-1.07,1.24-1.07.51-.14.81-.12,1.07.18A10.48,10.48,0,0,1,43.8,32c-.58-.57-.91-.91-.91-.91Zm-1.3,24,0-.17h0c1.27-5,3.09-12.22,4.14-16.88l0,0h0c3.4,3.23,8.59,7.88,14.84,12.75h-.07l.1.07A65.84,65.84,0,0,0,41.59,55Zm38.58,1.61c-.44,1.64-1.31,1.87-2.09,1.87h0a5.33,5.33,0,0,1-2-.48c-2.29-1.43-4.63-3-7-4.67h.06c4,0,6.75.25,6.86.25A6.05,6.05,0,0,1,79.78,55a2,2,0,0,1,.39,1.64Z" transform="translate(-20.35 -9)"/></g></g></svg>