<svg id="Layer_1" data-name="Layer 1" xmlns="http://www.w3.org/2000/svg" viewBox="0 0 106.03 99.41"><title>export_excel</title><path d="M105.69,22H62.62V12a3.3,3.3,0,0,0-1.2-2.54,3.36,3.36,0,0,0-2.73-.71l-53,10A3.29,3.29,0,0,0,3,22v72.9a3.31,3.31,0,0,0,2.71,3.25l53,9.95a3.15,3.15,0,0,0,.61.06,3.32,3.32,0,0,0,3.32-3.32V94.88h43.07A3.32,3.32,0,0,0,109,91.56V25.29A3.32,3.32,0,0,0,105.69,22ZM9.6,92.12V24.72L56,16v9.18s0,.05,0,.07,0,0,0,.07V38.48s0,0,0,.06,0,0,0,.06V51.74s0,0,0,.06,0,0,0,.05V65s0,0,0,.06a.43.43,0,0,0,0,0V78.25a.43.43,0,0,1,0,0s0,0,0,.06V91.43s0,.08,0,.12,0,.09,0,.14v9.13Zm92.78-3.87H62.62V81.62h9.93a3.32,3.32,0,1,0,0-6.63H62.62V68.36h9.93a3.32,3.32,0,1,0,0-6.63H62.62V55.11h9.93a3.32,3.32,0,1,0,0-6.63H62.62V41.85h9.93a3.32,3.32,0,1,0,0-6.63H62.62V28.6h39.76Z" transform="translate(-2.97 -8.72)"/><path d="M85.81,41.85h6.63a3.32,3.32,0,0,0,0-6.63H85.81a3.32,3.32,0,0,0,0,6.63Z" transform="translate(-2.97 -8.72)"/><path d="M85.81,55.11h6.63a3.32,3.32,0,0,0,0-6.63H85.81a3.32,3.32,0,0,0,0,6.63Z" transform="translate(-2.97 -8.72)"/><path d="M85.81,68.36h6.63a3.32,3.32,0,0,0,0-6.63H85.81a3.32,3.32,0,0,0,0,6.63Z" transform="translate(-2.97 -8.72)"/><path d="M85.81,81.62h6.63a3.32,3.32,0,0,0,0-6.63H85.81a3.32,3.32,0,0,0,0,6.63Z" transform="translate(-2.97 -8.72)"/><path d="M48.09,39.24a3.31,3.31,0,0,0-4.65.56L33.62,52.43,25.35,43a3.31,3.31,0,0,0-5,4.36l9.11,10.41L20.24,69.62a3.32,3.32,0,1,0,5.23,4.08l8.45-10.86,9.64,11a3.31,3.31,0,0,0,5-4.36l-10.49-12L48.67,43.88A3.33,3.33,0,0,0,48.09,39.24Z" transform="translate(-2.97 -8.72)"/></svg>