<svg id="Layer_1" data-name="Layer 1" xmlns="http://www.w3.org/2000/svg" viewBox="0 0 339.02 285.4">
<title>gestion_utilisateurs_icon</title>
<g id="Group_474" data-name="Group 474"><g id="multiple-users-silhouette">
<path id="Path_360" data-name="Path 360" d="M216.56,90.8a61.58,61.58,0,0,1,28.66,45.77A49.72,49.72,0,1,0,216.56,90.8ZM184,192.6a49.73,49.73,0,1,0-49.72-49.72A49.73,49.73,0,0,0,184,192.6Zm21.1,3.39H162.9a63.73,63.73,0,0,0-63.66,63.66v51.59l.13.81,3.56,1.11a290,290,0,0,0,86.64,14,177.75,177.75,0,0,0,75.58-14.19l3.32-1.67h.35V259.65A63.71,63.71,0,0,0,205.09,196Zm82.27-51.33H245.53a61.28,61.28,0,0,1-18.84,42.68,75.65,75.65,0,0,1,54,72.4v15.9a171.35,171.35,0,0,0,66.73-14l3.31-1.68H351V208.34a63.75,63.75,0,0,0-63.66-63.68ZM96.73,141.27a49.34,49.34,0,0,0,26.37-7.66,61.52,61.52,0,0,1,23.22-39.25c0-.93.14-1.89.14-2.79a49.73,49.73,0,1,0-49.75,49.7Zm44.66,46.07a61.33,61.33,0,0,1-18.84-42.45c-1.54-.11-3.08-.24-4.67-.24H75.64A63.73,63.73,0,0,0,12,208.33v51.6l.13.79,3.56,1.13a298.18,298.18,0,0,0,71.65,13.47V259.74A75.66,75.66,0,0,1,141.39,187.34Z" transform="translate(-11.98 -41.81)"/></g></g>
</svg>