<svg xmlns="http://www.w3.org/2000/svg" viewBox="0 0 194.51 222.3"><title>Path 49</title><g id="Layer_2" data-name="Layer 2"><g id="Layer_1-2" data-name="Layer 1"><path id="Path_49" data-name="Path 49" class="cls-1" d="M97.25,111.14A27.8,27.8,0,1,1,69.49,139h0a27.79,27.79,0,0,1,27.75-27.82Zm0-83.36A27.84,27.84,0,0,0,69.49,55.56h55.57A27.85,27.85,0,0,0,97.25,27.78ZM166.72,222.3H27.79A27.85,27.85,0,0,1,0,194.51V83.36a27.85,27.85,0,0,1,27.79-27.8H41.68a55.57,55.57,0,0,1,111.14,0h13.9a27.85,27.85,0,0,1,27.79,27.79V194.49a27.86,27.86,0,0,1-27.79,27.81Z"/></g></g></svg>