<svg id="Layer_1" data-name="Layer 1" xmlns="http://www.w3.org/2000/svg" viewBox="0 0 544.75 295.24">
<title>nomad_logo_black</title>
<path d="M239.42,23.54,165.5,4.88A54.86,54.86,0,0,0,123.75,11L85.21,34A54.76,54.76,0,0,0,60,67.85L36.54,161a11,11,0,0,0,21.36,5.4L81.4,73.24A32.84,32.84,0,0,1,96.5,53l38.57-23a32.87,32.87,0,0,1,25-3.68L234,44.91a22.07,22.07,0,0,1,16,26.75l-18.14,71.78a58.25,58.25,0,0,1,11.42.69c.27.06.68.12.94.19.41.08.82.15,1.23.25a37.62,37.62,0,0,1,5,1.55,34.17,34.17,0,0,1,3.15,1.39l17.77-70.45A44.12,44.12,0,0,0,239.42,23.54Z" transform="translate(-21.74 -3.17)"/>
<path  d="M223.43,219a36.39,36.39,0,0,1-4.19-1.33,32.62,32.62,0,0,1-5.41-2.64l-11.28,44.72a22.06,22.06,0,0,1-26.76,16L60.39,246.59a22.05,22.05,0,0,1-15.94-26.76,11,11,0,0,0-21.37-5.39A44.13,44.13,0,0,0,55,268l115.39,29.11A44.12,44.12,0,0,0,224,265.12l11.29-44.79-.44,0A45.92,45.92,0,0,1,223.43,219Z" transform="translate(-21.74 -3.17)"/>
<polygon fill='#FFFFFF' points="139.32 182.04 139.04 182.04 96.88 114.3 74.81 114.3 74.81 215.32 95.61 215.32 95.61 147.69 95.89 147.69 137.92 215.32 160.11 215.32 160.11 114.3 139.32 114.3 139.32 182.04"/>
<path  fill='#FFFFFF' d="M390.55,149.31a21.53,21.53,0,0,0-8.48-4.53,39.19,39.19,0,0,0-10.77-1.41A23.68,23.68,0,0,0,358.08,147a31.55,31.55,0,0,0-8.81,8.5,17.8,17.8,0,0,0-8.7-9.49,29.46,29.46,0,0,0-12.67-2.73,25.79,25.79,0,0,0-12.81,3.12,28.6,28.6,0,0,0-9.56,8.81h-.28v-9.91H286.3V218.5h20.09V176a20.88,20.88,0,0,1,1.55-8.7,14.12,14.12,0,0,1,3.75-5.1,12.45,12.45,0,0,1,4.53-2.4,15,15,0,0,1,3.75-.64,13.33,13.33,0,0,1,7.29,1.63,9,9,0,0,1,3.53,4.31A18,18,0,0,1,332,171q.15,3.19.15,6.43V218.5h20.12V177.74a44.28,44.28,0,0,1,.5-6.71,17.08,17.08,0,0,1,1.95-5.95,11.79,11.79,0,0,1,4.12-4.24,12.8,12.8,0,0,1,6.85-1.63,13.33,13.33,0,0,1,6.71,1.42,9.32,9.32,0,0,1,3.75,3.82,14.9,14.9,0,0,1,1.56,5.66q.29,3.25.28,6.94V218.5h20V169.55a33,33,0,0,0-2-12.1A20.8,20.8,0,0,0,390.55,149.31Z" transform="translate(-21.74 -3.17)"/>
<path  fill='#FFFFFF' d="M479.53,202.2V164.14a17.65,17.65,0,0,0-2.94-10.68,20.39,20.39,0,0,0-7.64-6.3,34.32,34.32,0,0,0-10.33-3,82.05,82.05,0,0,0-11.18-.78,61.46,61.46,0,0,0-12.1,1.21,34.33,34.33,0,0,0-10.82,4,24.27,24.27,0,0,0-7.92,7.5,23.39,23.39,0,0,0-3.53,11.75h20.06a11.35,11.35,0,0,1,4-8.5,15.29,15.29,0,0,1,9.33-2.55,32.56,32.56,0,0,1,5,.36,10.89,10.89,0,0,1,4.1,1.42,7.73,7.73,0,0,1,2.83,2.93,10.53,10.53,0,0,1,1.06,5.17,5.43,5.43,0,0,1-1.84,4.74,13.64,13.64,0,0,1-5.38,2.48,55.47,55.47,0,0,1-7.79,1.27q-4.4.42-8.91,1.12a88.86,88.86,0,0,0-9,2,25.59,25.59,0,0,0-7.92,3.6,18.35,18.35,0,0,0-5.66,6.44,21.3,21.3,0,0,0-2.19,10.26,22.84,22.84,0,0,0,1.91,9.78,18.4,18.4,0,0,0,5.3,6.81,22.16,22.16,0,0,0,7.93,4,35.62,35.62,0,0,0,9.79,1.28,46.17,46.17,0,0,0,13.31-2,26.2,26.2,0,0,0,11.31-6.93,33.51,33.51,0,0,0,.5,3.6,27.55,27.55,0,0,0,.92,3.46h20.32a17.1,17.1,0,0,1-1.95-6.85A75,75,0,0,1,479.53,202.2Zm-20.35-7.38a15.19,15.19,0,0,1-2,5.58,13.17,13.17,0,0,1-4.81,4.74,17.64,17.64,0,0,1-9.21,2,26.08,26.08,0,0,1-4.67-.42,11.53,11.53,0,0,1-3.92-1.49,7.54,7.54,0,0,1-2.69-2.94,9.3,9.3,0,0,1-1-4.52,9.92,9.92,0,0,1,1-4.67,9.23,9.23,0,0,1,2.62-3,13.69,13.69,0,0,1,3.82-2,37.85,37.85,0,0,1,4.46-1.14c1.6-.28,3.2-.51,4.8-.7s3.15-.42,4.61-.7a34.77,34.77,0,0,0,4.1-1.06,9.1,9.1,0,0,0,3.19-1.77v7.6A40.26,40.26,0,0,1,459.18,194.82Z" transform="translate(-21.74 -3.17)"/>
<path  fill='#FFFFFF' d="M546.4,117.47v36.78h-.29a21.49,21.49,0,0,0-9.26-8.14,28.79,28.79,0,0,0-12.42-2.75A29.6,29.6,0,0,0,500.16,155a37.25,37.25,0,0,0-6.08,12.1A49.21,49.21,0,0,0,492,181.3,52.46,52.46,0,0,0,494.08,196a39.12,39.12,0,0,0,6.08,12.54,29,29,0,0,0,10.26,8.63,31.37,31.37,0,0,0,14.46,3.19,30.83,30.83,0,0,0,13-2.63,20.64,20.64,0,0,0,9.23-8.55h.3v9.34H566.5v-101Zm-.16,73.07a23.84,23.84,0,0,1-2.83,7.56,14.93,14.93,0,0,1-5.31,5.31,15.93,15.93,0,0,1-8.28,2,14.9,14.9,0,0,1-8-2.06,17.58,17.58,0,0,1-5.52-5.37,22.71,22.71,0,0,1-3.22-7.6,37.39,37.39,0,0,1-1-8.5,39.82,39.82,0,0,1,.93-8.7,22.89,22.89,0,0,1,2.93-7.42,15.72,15.72,0,0,1,5.45-5.24,16.3,16.3,0,0,1,8.35-1.95,15.55,15.55,0,0,1,8.2,1.95,16.49,16.49,0,0,1,5.32,5.16,21.56,21.56,0,0,1,2.93,7.36h0a44.19,44.19,0,0,1,.87,8.73A45,45,0,0,1,546.24,190.54Z" transform="translate(-21.74 -3.17)"/>
<path  fill='#FFFFFF' d="M270,166.07a33.41,33.41,0,0,0-16.43-18.56,34.17,34.17,0,0,0-3.15-1.39,37.62,37.62,0,0,0-5-1.55c-.41-.1-.82-.17-1.23-.25a46.93,46.93,0,0,0-20.82.44,38.46,38.46,0,0,0-4.18,1.36,33.5,33.5,0,0,0-19.53,19.95A45,45,0,0,0,197,182a44.15,44.15,0,0,0,2.69,15.85,34.13,34.13,0,0,0,7.64,12.1,33.35,33.35,0,0,0,6.47,5.07,32.62,32.62,0,0,0,5.41,2.64,36.39,36.39,0,0,0,4.19,1.33,45.92,45.92,0,0,0,11.38,1.37l.44,0a46.83,46.83,0,0,0,10.22-1.16,37.5,37.5,0,0,0,5-1.52,33.16,33.16,0,0,0,11.95-7.7,34.53,34.53,0,0,0,7.65-12.1A44.63,44.63,0,0,0,272.73,182,45.3,45.3,0,0,0,270,166.07Zm-18.26,24.48a22.67,22.67,0,0,1-2.94,7.5,15.57,15.57,0,0,1-5.52,5.3,17,17,0,0,1-8.55,2,16.49,16.49,0,0,1-8.49-2,15.54,15.54,0,0,1-5.45-5.3,22.88,22.88,0,0,1-2.94-7.5A43.22,43.22,0,0,1,217,182a43.84,43.84,0,0,1,.85-8.63,22.08,22.08,0,0,1,2.94-7.5,15.88,15.88,0,0,1,2.56-3.1,16.76,16.76,0,0,1,2.89-2.21,16.22,16.22,0,0,1,8.49-2,16.62,16.62,0,0,1,8.56,2,18.08,18.08,0,0,1,2.11,1.47,15.81,15.81,0,0,1,3.41,3.84,21.88,21.88,0,0,1,2.94,7.5,43.84,43.84,0,0,1,.85,8.63A43.23,43.23,0,0,1,251.77,190.55Z"
 transform="translate(-21.74 -3.17)"/></svg>