<svg id="Layer_1" data-name="Layer 1" xmlns="http://www.w3.org/2000/svg" viewBox="0 0 294 294"><title>reporting_icon</title><g id="icon_dashboard" data-name="icon dashboard"><path id="Union_8" data-name="Union 8" d="M272.86,328a17.38,17.38,0,0,1-18.38-16.29,18,18,0,0,1,0-2.08V144.26a17.36,17.36,0,0,1,16.29-18.37,14.72,14.72,0,0,1,2.1,0h36.74A17.36,17.36,0,0,1,328,142.19a17.87,17.87,0,0,1,0,2.07V309.6A17.37,17.37,0,0,1,311.68,328a18,18,0,0,1-2.08,0Zm-110.23,0a17.34,17.34,0,0,1-18.37-16.25,15,15,0,0,1,0-2.12V52.4A17.35,17.35,0,0,1,160.54,34a18.22,18.22,0,0,1,2.09,0h36.74a17.35,17.35,0,0,1,18.37,16.28,18.22,18.22,0,0,1,0,2.09V309.6A17.34,17.34,0,0,1,201.49,328a18.74,18.74,0,0,1-2.12,0ZM52.4,328A17.37,17.37,0,0,1,34,311.68a18,18,0,0,1,0-2.08V236.11a17.37,17.37,0,0,1,16.3-18.38,15.89,15.89,0,0,1,2.07,0H89.14A17.38,17.38,0,0,1,107.53,234a18.22,18.22,0,0,1,0,2.09V309.6A17.35,17.35,0,0,1,91.25,328a18.74,18.74,0,0,1-2.12,0Z" transform="translate(-34 -34)"/></g></svg>