<svg id="Layer_1" data-name="Layer 1" xmlns="http://www.w3.org/2000/svg" viewBox="0 0 238.29 219"><title>search_avanced_icon</title><g id="controls"><path id="Path_3720" data-name="Path 3720" d="M180.14,196.54v18H25.85a4.5,4.5,0,0,0,0,9H180.1v18a4.47,4.47,0,0,0,4.41,4.49h52.91a4.45,4.45,0,0,0,4.4-4.49v-18h13.23a4.5,4.5,0,0,0,0-9h-13.2v-18a4.46,4.46,0,0,0-4.41-4.49H184.55A4.46,4.46,0,0,0,180.14,196.54Z" transform="translate(-21.36 -27)"/><path id="Path_3721" data-name="Path 3721" d="M109.61,114v18H25.85a4.49,4.49,0,1,0,0,9h83.79v18a4.47,4.47,0,0,0,4.41,4.5H167a4.45,4.45,0,0,0,4.4-4.5V141h83.8a4.49,4.49,0,0,0,0-9h-83.8V114a4.44,4.44,0,0,0-4.41-4.49H114A4.45,4.45,0,0,0,109.61,114Z" transform="translate(-21.36 -27)"/><path id="Path_3722" data-name="Path 3722" d="M39.08,31.49v18H25.85a4.5,4.5,0,0,0,0,9H39.08v18A4.46,4.46,0,0,0,43.49,81H96.38a4.46,4.46,0,0,0,4.41-4.49v-18H255a4.5,4.5,0,0,0,0-9H100.79v-18A4.46,4.46,0,0,0,96.38,27H43.49A4.46,4.46,0,0,0,39.08,31.49Z" transform="translate(-21.36 -27)"/></g></svg>