<svg id="Layer_1" data-name="Layer 1" xmlns="http://www.w3.org/2000/svg" viewBox="0 0 70.17 70.18"><title>search_icon</title><g id="Group_282"
 data-name="Group 282">
 <path id="Path_995"
  data-name="Path 995"
   d="M45.37,51.72a27.41,27.41,0,1,1,6.32-6.3,3.13,3.13,0,0,1,.42.29L71.27,64.87A2.25,2.25,0,0,1,71.73,68a2.23,2.23,0,0,1-.46.46l-2.88,2.88a2.22,2.22,0,0,1-3.11.32,2.34,2.34,0,0,1-.31-.32L45.74,52.14C45.61,52,45.5,51.87,45.37,51.72ZM29.42,48.05a18.65,18.65,0,0,0,0-37.29h0a18.65,18.65,0,0,0,0,37.29Z" transform="translate(-2 -2)"/>
   </g></svg>