<?xml version="1.0" encoding="utf-8"?>
<!-- Generator: Adobe Illustrator 23.0.2, SVG Export Plug-In . SVG Version: 6.00 Build 0)  -->
<svg version="1.1" id="Layer_1" xmlns="http://www.w3.org/2000/svg" xmlns:xlink="http://www.w3.org/1999/xlink" x="0px" y="0px"
	 viewBox="0 0 315.8 259.3" style="enable-background:new 0 0 315.8 259.3;" xml:space="preserve">
<title>show</title>
<path d="M32.2,17.9l30.2,30.2C34.2,67.4,12.4,94.8,0,126.6c33.8,87.2,131.9,130.4,219.1,96.6c4.4-1.7,8.6-3.6,12.8-5.6l41.7,41.6
	l18-18L50.1,0L32.2,17.9z M99.3,85.1l20.8,20.8c-3.5,6.3-5.3,13.4-5.2,20.6v0.1c-0.1,23.8,19.2,43.2,43,43.2c0,0,0,0,0,0h0.1
	c7.3,0,14.4-1.8,20.8-5.4l20.8,20.8c-32.5,22.9-77.3,15.2-100.3-17.3C81.7,143.2,81.7,110,99.3,85.1L99.3,85.1z"/>
<path d="M157.9,54.6c39.8,0.2,72,32.7,71.8,72.5c0,5.2-0.6,10.5-1.8,15.6l46,46c18.4-17.3,32.7-38.5,41.9-62
	C284,44.7,194.9,0.7,110.6,25.3l31.1,31.1C147,55.2,152.4,54.6,157.9,54.6z"/>
<path d="M199.1,112.9c-4.2-13.6-14.9-24.3-28.5-28.5L199.1,112.9z"/>
</svg>
