<svg id="Layer_1" data-name="Layer 1" xmlns="http://www.w3.org/2000/svg" viewBox="0 0 59.42 59.42"><defs><style>.cls-1{fill:#fff;}</style></defs><title>translate_icon</title><path id="Path_302" data-name="Path 302" class="cls-1" d="M51.55,9.41A29.9,29.9,0,0,0,9.26,51.69,29.9,29.9,0,0,0,51.55,9.41ZM24.73,4.77a39,39,0,0,0-3.17,3.49,36.1,36.1,0,0,0-4.66,7.51H8.55A26.44,26.44,0,0,1,24.73,4.77ZM6.54,19.28h9a35.11,35.11,0,0,0-1.77,9.53H4.06A26.26,26.26,0,0,1,6.54,19.28Zm-2.48,13h9.68a35.11,35.11,0,0,0,1.77,9.53h-9A26.26,26.26,0,0,1,4.06,32.3Zm4.49,13H16.9a36.1,36.1,0,0,0,4.66,7.51,39,39,0,0,0,3.17,3.49A26.44,26.44,0,0,1,8.55,45.33Zm20.1,9.83a34.51,34.51,0,0,1-4.36-4.52,33.4,33.4,0,0,1-3.49-5.32h7.85Zm0-13.34H19.22a31.07,31.07,0,0,1-2-9.53h11.4Zm0-13H17.25a31.32,31.32,0,0,1,2-9.51h9.43Zm0-13H20.8a32.66,32.66,0,0,1,3.41-5.21,34.1,34.1,0,0,1,4.44-4.63Zm28.09,13H47.07a35.57,35.57,0,0,0-1.77-9.53h9a26.15,26.15,0,0,1,2.47,9.54Zm-4.48-13H43.91a36.53,36.53,0,0,0-4.66-7.51,37.61,37.61,0,0,0-3.18-3.49A26.43,26.43,0,0,1,52.26,15.77ZM32.16,5.94a34.43,34.43,0,0,1,4.35,4.52A32.78,32.78,0,0,1,40,15.78H32.16Zm0,13.34h9.43a31.37,31.37,0,0,1,2,9.53H32.16Zm0,13h11.4a31.44,31.44,0,0,1-2,9.53H32.16Zm0,22.87V45.33H40a33.21,33.21,0,0,1-3.41,5.22,34.56,34.56,0,0,1-4.44,4.61Zm3.91,1.16a38.82,38.82,0,0,0,3.17-3.49,36.37,36.37,0,0,0,4.66-7.51h8.36a26.45,26.45,0,0,1-16.18,11Zm18.2-14.52h-9a35.11,35.11,0,0,0,1.77-9.53h9.68A26.26,26.26,0,0,1,54.27,41.82Z" transform="translate(-0.69 -0.84)"/></svg>