<?xml version="1.0" encoding="utf-8"?>
<!-- Generator: Adobe Illustrator 23.0.2, SVG Export Plug-In . SVG Version: 6.00 Build 0)  -->
<svg version="1.1" id="Layer_1" xmlns="http://www.w3.org/2000/svg" xmlns:xlink="http://www.w3.org/1999/xlink" x="0px" y="0px"
	 viewBox="0 0 396.7 340.7" style="enable-background:new 0 0 396.7 340.7;" xml:space="preserve">
<title>tri</title>
<g>
	<path d="M351.5,115.5l-64.9-64.9c-2.3-2.3-5.4-3.6-8.7-3.6l0,0c-3.3,0-6.4,1.3-8.7,3.6l-61.4,61.4c-5.1,4.5-5.5,12.3-1,17.4
		c4.5,5.1,12.3,5.5,17.4,1c0.2-0.1,0.3-0.3,0.5-0.5l0.5-0.5l40.3-40.3v175.3c0,6.8,5.6,12.4,12.4,12.4l0,0c6.8,0,12.4-5.6,12.4-12.4
		V89.1l40.4,40.4c5,4.6,12.7,4.4,17.4-0.6c3.4-3.6,4.3-8.9,2.2-13.4L351.5,115.5z"/>
	<path d="M192.7,218.1L192.7,218.1c-5-4.2-12.3-4-16.8,0.6L135.5,259V83.7c-0.2-6.9-5.9-12.3-12.8-12.1c-6.6,0.2-11.9,5.5-12.1,12.1
		V259l-40.4-40.4c-4.9-4.7-12.7-4.4-17.4,0.5c-4.5,4.8-4.5,12.2,0,16.9l61.5,61.5c2.3,2.3,5.4,3.6,8.7,3.6l0,0
		c3.3,0,6.4-1.3,8.7-3.6l61.5-61.5c4.8-4.8,4.8-12.6,0-17.4L192.7,218.1z"/>
</g>
</svg>
