<svg id="Layer_1" data-name="Layer 1" xmlns="http://www.w3.org/2000/svg" xmlns:xlink="http://www.w3.org/1999/xlink" viewBox="0 0 973 1080"><defs><style>.cls-1,.cls-11,.cls-13,.cls-6,.cls-8{fill:none;}.cls-2{clip-path:url(#clip-path);}.cls-3{clip-path:url(#clip-path-2);}.cls-4{opacity:0.2;}.cls-10,.cls-5,.cls-9{opacity:0.7;isolation:isolate;}.cls-5{fill:url(#linear-gradient);}.cls-6{stroke:#a3a0fb;}.cls-11,.cls-13,.cls-6,.cls-8{stroke-width:2px;}.cls-7{fill:#fff;}.cls-8{stroke:#a4a1fb;}.cls-9{fill:url(#linear-gradient-2);}.cls-10{fill:url(#linear-gradient-3);}.cls-11{stroke:#54d8ff;}.cls-12{opacity:0.51;}.cls-13{stroke:#55d8fe;}.cls-14{fill:url(#linear-gradient-4);}.cls-15{fill:#50be86;}.cls-16{fill:#595959;}.cls-17{fill:#a885d8;}.cls-18{fill:#f4cfb2;}.cls-19{fill:#e3e3e3;}.cls-20{fill:#527edb;}.cls-21{fill:#ffcc01;}</style><clipPath id="clip-path"><rect class="cls-1" x="2.5" y="0.5" width="970" height="1076"/></clipPath><clipPath id="clip-path-2"><rect class="cls-1" x="3" y="-88" width="970.49" height="1164.59"/></clipPath><linearGradient id="linear-gradient" x1="-748.44" y1="-1.49" x2="-748.44" y2="-0.49" gradientTransform="translate(2430097.49 1248.22) scale(3245.59 661.12)" gradientUnits="userSpaceOnUse"><stop offset="0" stop-color="#a7a7ff"/><stop offset="1" stop-color="#fff" stop-opacity="0"/></linearGradient><linearGradient id="linear-gradient-2" x1="-748.44" y1="-1.49" x2="-748.44" y2="-0.49" gradientTransform="translate(2429943.42 1530.91) scale(3245.59 661.12)" xlink:href="#linear-gradient"/><linearGradient id="linear-gradient-3" x1="-748.44" y1="-1.64" x2="-748.44" y2="-0.64" gradientTransform="translate(2429902.88 1107.47) scale(3245.58 502.88)" gradientUnits="userSpaceOnUse"><stop offset="0" stop-color="#54d8ff"/><stop offset="1" stop-color="#fff" stop-opacity="0"/></linearGradient><linearGradient id="linear-gradient-4" x1="-748.44" y1="-1.64" x2="-748.44" y2="-0.64" gradientTransform="translate(2429534.44 1241.28) scale(3245.58 502.88)" xlink:href="#linear-gradient-3"/></defs><title>img_security_question</title><g class="cls-2"><g class="cls-3"><g id="Group_4" data-name="Group 4"><g id="Products_Sold_Graph" data-name="Products Sold Graph" class="cls-4"><path id="Filled.Graph" class="cls-5" d="M-662.09,822.17V557.51S-287.84,731.11,11.19,742c323.34-10.57,379.33-84.86,631.19-184.5,215.22-83.06,429.86-105.85,635.87-100s384.58,95.58,627.92,104.78c429.3-37,648.33-224.32,677.33-302.54V920.6l-3245.59.3Z"/><path id="Line.Graph" class="cls-6" d="M-659.11,558.2S-287.28,735.94,6.72,739.76,413.64,648,638.83,558.43s439.26-104.9,636.34-101.88,388.68,96.91,630.84,101.9,633.93-162.32,677.49-301.76"/><g id="Mar.Ellipse"><circle class="cls-7" cx="639.43" cy="559.67" r="14.87"/><circle class="cls-8" cx="639.43" cy="559.67" r="13.87"/></g><g id="Feb.Ellipse"><circle class="cls-7" cx="209.4" cy="724.32" r="14.87"/><circle class="cls-8" cx="209.4" cy="724.32" r="13.87"/></g></g><g id="Products_Sold_Graph-2" data-name="Products Sold Graph-2" class="cls-4"><path id="Filled.Graph-2" class="cls-9" d="M-816.16,1104.83V840.16s374.25,173.6,673.28,184.5c323.34-10.56,379.33-84.86,631.19-184.5,215.23-83,429.87-105.84,635.88-100S1508.76,835.77,1752.11,845c429.3-37,648.32-224.31,677.33-302.53V1203.3l-3245.6.29Z"/><path id="Line.Graph-2" class="cls-6" d="M-813.18,840.85s371.84,177.74,665.83,181.57S259.58,930.7,484.76,841.09,924,736.19,1121.1,739.2s388.69,96.92,630.9,101.9,633.92-162.32,677.49-301.76"/><g id="Mar.Ellipse-2"><circle class="cls-7" cx="485.37" cy="842.33" r="14.87"/><circle class="cls-8" cx="485.37" cy="842.33" r="13.87"/></g></g><g id="Total_Views_Graph" data-name="Total Views Graph"><path id="Filled.Graph-3" class="cls-10" d="M-849.38,687.89V283.74S-484.11,685.55-184,700.67c334.79-3.4,337.54-208.6,631.73-320.92C694,291.55,881.91,532.14,1087.92,538s348.19-164.89,629.25-176.76c364.15,17.87,656.36,246,679,258.28v166.8l-3245.58.29Z"/><path id="Line.Graph-3" class="cls-11" d="M-851.39,287.16s376.64,409.22,671,413.05S214.64,459.1,451,376.52,892.38,534,1089.71,537,1476,356.67,1718.43,361.66s519.66,143.7,672.92,253.13"/><g id="Mar.Ellipse-3" class="cls-12"><circle class="cls-7" cx="547.81" cy="360.1" r="14.87"/><circle class="cls-13" cx="547.81" cy="360.1" r="13.87"/></g></g><g id="Total_Views_Graph-2" data-name="Total Views Graph-2" class="cls-4"><path id="Filled.Graph-4" class="cls-14" d="M-1217.83,821.74V417.59S-852.56,819.41-552.5,834.53C-217.71,831.12-215,625.93,79.23,513.6,325.52,425.4,513.45,666,719.47,671.86S1067.66,507,1348.72,495.11c364.15,17.86,656.36,246,679,258.27v166.8l-3245.58.29Z"/><path id="Line.Graph-4" class="cls-11" d="M-1218.63,421s376.65,409.22,671,413.05,395-241,631.38-323.68S525.14,667.88,722.47,670.89s386.26-180.37,628.72-175.38,519.67,143.7,672.92,253.13"/><g id="Apr.Ellipse"><circle class="cls-7" cx="842.77" cy="653.65" r="14.87"/><circle class="cls-13" cx="842.77" cy="653.65" r="13.87"/></g><g id="Mar.Ellipse-4"><circle class="cls-7" cx="80.69" cy="509.84" r="14.87"/><circle class="cls-13" cx="80.69" cy="509.84" r="13.87"/></g></g></g></g><g id="Group_481" data-name="Group 481"><g id="Group_472" data-name="Group 472"><g id="Group_466" data-name="Group 466"><g id="Group_463" data-name="Group 463"><path id="Path_3759" data-name="Path 3759" class="cls-15" d="M428.26,580.7,412.49,747.14,421.83,894h26.56l5.33-144.48,18.64-98.37,8.33,98L494.56,894h26.56l-2.29-144.33,13.54-167.36Z"/></g><g id="Group_464" data-name="Group 464"><path id="Path_3760" data-name="Path 3760" class="cls-16" d="M441.08,925.45s-1.39-9.73,26.47-14.43,27-17.07,27-17.07h26.56v31.5Z"/></g><g id="Group_465" data-name="Group 465"><path id="Path_3761" data-name="Path 3761" class="cls-16" d="M368.35,925.45S367,915.72,394.82,911s27-17.07,27-17.07h26.56v31.5Z"/></g></g><path id="Path_3744" data-name="Path 3744" class="cls-17" d="M528.25,535.2l2.15-118.1c-62.75-13.49-107.27,1.47-107.27,1.47,0,5.42,4.79,164.44,4.79,164.44h96.43C551.65,583,526.07,562,528.25,535.2Z"/><g id="Group_471" data-name="Group 471"><g id="Group_467" data-name="Group 467"><path id="Path_3762" data-name="Path 3762" class="cls-18" d="M426.5,366.43,434.24,353a16.45,16.45,0,0,0,1.71-4.27L441,328l45.43-3.62,5.46,68.43c.82,16.5,8.35,26.37,8.35,26.37l-40.66,11.2L458,409.57c.16-3.61-1-7-3.7-7.64l-9.51-1.85a16.13,16.13,0,0,1-13.05-15.4l-.35-11.91L427.87,371a3.28,3.28,0,0,1-1.46-4.4Z"/></g><g id="Group_468" data-name="Group 468"><path id="Path_3763" data-name="Path 3763" class="cls-16" d="M502.72,328.32c-18.73-23.47-59.39-6.47-66.72-18.7a1,1,0,0,0-1.4-.41,1.08,1.08,0,0,0-.49.62c-2.45,9.17-1.21,15.95,6.73,18.73l15.33,3.83a12.09,12.09,0,0,1,9,14l-2.57,13.73c-5.39,23.36-10.72,20.15-14.16,16.83-5.12-4.94-17-4.14-17-4.14l.35,11.91a16.12,16.12,0,0,0,13.05,15.4l8.08,1.57c11.77,1.62,16.09-27.31,17.2-37a8.78,8.78,0,0,1,3.92-6.5,6.72,6.72,0,0,1,6.46-.4c5.22,2.14,4.57,8.81,1.38,19.58s10.05,15.54,10.05,15.54C502.41,376,521,351.24,502.72,328.32Z"/></g><g id="Group_469" data-name="Group 469"><path id="Path_3764" data-name="Path 3764" class="cls-7" d="M431.55,377.82s7.25.44,11.18-.52c-.21,2.77-4.18,7.88-11,7.38Z"/></g><g id="Group_470" data-name="Group 470"><circle id="Ellipse_280" data-name="Ellipse 280" cx="444.71" cy="354.83" r="1.89"/></g></g><path id="Path_3743" data-name="Path 3743" class="cls-17" d="M423.13,418.57c-23.23,5.5-26.15,71-35.73,113.13l-65.49,38.86,7.72,31.61s3-11.5,17-15.33,18.84-.31,28.58-9.9,14.2-11.17,25.7-14.36,17.88-15,27.46-45S450.5,412.09,423.13,418.57Z"/><path id="Path_3747" data-name="Path 3747" class="cls-7" d="M459.22,413l8.59,11.84-11.59,10.43-6.49-22.07,8-7.22Z"/><path id="Path_3748" data-name="Path 3748" class="cls-7" d="M494,413l-15.65,11.09,14,12.7,10.8-24-9.64-9Z"/><path id="Path_3749" data-name="Path 3749" class="cls-19" d="M467.81,424.82l10.56-.76,4.42,4-3.6,8.68H468.35l-4.2-8.65Z"/><path id="Path_3750" data-name="Path 3750" class="cls-7" d="M473.73,549.42,458.1,567.2l-10.44-17.78,21.06-112.65h10Z"/><g id="Group_475" data-name="Group 475"><g id="Group_474" data-name="Group 474"><path id="Path_3833" data-name="Path 3833" class="cls-20" d="M402.58,391.41H269.09S258.9,409.33,244.92,411c-49.57,171.58,90.84,214,90.91,214h0c.09,0,140.5-42.41,90.93-214C412.75,409.32,402.58,391.41,402.58,391.41Z"/><path id="Path_3834" data-name="Path 3834" class="cls-21" d="M395.52,402.22H274.12s-9.27,16.19-22,17.66c-45.09,155,82.61,193.31,82.68,193.34h0c.08,0,127.77-38.32,82.69-193.34C404.77,418.41,395.52,402.22,395.52,402.22Z"/><path id="Path_3835" data-name="Path 3835" class="cls-7" d="M438.82,406.83l-1.21-4.1-4.78-.55c-9.07-1-18-12.93-20.35-17l-2-3.41H259.15l-2,3.42c-2.39,4.09-11.22,16-20.37,17l-4.79.55-1.21,4.1c-54.6,184.56,100.4,230.39,102,230.8l2.06.53,2.06-.55C338.49,637.19,493,590,438.82,406.83Zm-104,218.11c-18.68-6.36-136-53.16-91.24-211.32,11.74-3.5,20.24-13.8,24.1-19.33H402c3.87,5.53,12.36,15.84,24.1,19.33,44.8,158.17-72.58,205-91.24,211.32Z"/></g></g><path id="Path_3755" data-name="Path 3755" class="cls-18" d="M427.7,575.46l-10.87,6s-26.58-5.51-38.55,11.37l1.43,3.6a10.48,10.48,0,0,0,13.4,6c4.76-1.73,10.94-3.63,17.5-3.34,16,.72,23.95-9.57,23.95-9.57Z"/><path id="Path_3757" data-name="Path 3757" class="cls-17" d="M530.4,417.1c-20.35-3-28.21,72.45-37.8,114.6l-72,40.77,14.26,29.7s3-11.5,17-15.32,18.84-.32,28.58-9.9,14.2-11.18,25.7-14.37,17.88-15,27.46-45S558.23,421.14,530.4,417.1Z"/></g><g id="Group_476" data-name="Group 476"><path id="Path_3836" data-name="Path 3836" class="cls-16" d="M335.61,442.79c7.62.09,14.95,1.41,21.71,5.09,8.1,4.4,13.75,10.84,15.9,19.92,2.43,10.2-.57,19-7.83,26.27-4.24,4.26-8.8,8.18-13.2,12.26q-2.12,2-4.15,4a17.72,17.72,0,0,0-5.06,9.26q-.5,2.49-1.14,4.95c-1.26,4.79-4.7,7.2-9.78,6.9a9,9,0,0,1-8.76-8c-1-8.69,1.36-16.42,7.45-22.73,4-4.19,8.5-7.95,12.7-12a62.24,62.24,0,0,0,6.07-6.4c5-6.32,3.1-15.2-3.48-19.8a17.89,17.89,0,0,0-10.76-3.05,20.77,20.77,0,0,0-9,1.8c-3.58,1.75-5.68,4.86-7.39,8.24-1.19,2.35-2.08,4.86-3.09,7.31-.35.85-.63,1.73-1,2.57-3.53,8.23-13.57,7.91-17.9,1.6a10.45,10.45,0,0,1-1.58-7.8c1.43-9.73,6.57-17.11,14.48-22.7a41.71,41.71,0,0,1,23.28-7.58C333.92,442.88,334.76,442.83,335.61,442.79Z"/><path id="Path_3837" data-name="Path 3837" class="cls-16" d="M345.38,550.43a11.47,11.47,0,0,1-11.18,11.76h-.65c-5.52,0-12-3.77-11.9-11.8a11.72,11.72,0,0,1,11.65-11.78h.37A11.58,11.58,0,0,1,345.39,550C345.39,550.16,345.39,550.29,345.38,550.43Z"/></g></g></g></svg>