<?xml version="1.0" encoding="utf-8"?>
<!-- Generator: Adobe Illustrator 23.0.2, SVG Export Plug-In . SVG Version: 6.00 Build 0)  -->
<svg version="1.1" id="Layer_1" xmlns="http://www.w3.org/2000/svg" xmlns:xlink="http://www.w3.org/1999/xlink" x="0px" y="0px"
	 viewBox="0 0 568.1 284.4" style="enable-background:new 0 0 568.1 284.4;" xml:space="preserve">
<style type="text/css">
	.st0{fill:url(#Path_3841_1_);}
	.st1{fill:url(#Path_3842_1_);}
</style>
<title>logo_nomad_black</title>
<g id="Group_480">
	<g id="Group_478">
		
			<linearGradient id="Path_3841_1_" gradientUnits="userSpaceOnUse" x1="-1068.8834" y1="-41.4205" x2="-1066.6234" y2="-41.4205" gradientTransform="matrix(88.16 0 0 63.91 94247.2578 2729.6497)">
			<stop  offset="0" style="stop-color:#F16E00"/>
			<stop  offset="1" style="stop-color:#FF7901"/>
		</linearGradient>
		<path id="Path_3841" class="st0" d="M223.3,139.4l17.2-68.2c5.7-22.7-8.1-45.8-30.8-51.6l-71.2-18c-13.6-3.5-28.1-1.4-40.2,5.9
			L61.1,29.7C49,36.9,40.3,48.6,36.9,62.3L14.3,152c-1.3,5.7,2.3,11.4,8,12.7c5.5,1.3,11.1-2.1,12.6-7.5l22.6-89.7
			c2-8.2,7.3-15.2,14.5-19.5l37.1-22.2c7.2-4.3,15.9-5.6,24.1-3.5l71.2,18c11.3,2.9,18.2,14.4,15.4,25.7l-17.3,68.4
			c3.7,0,7.4,0.4,11,1.4C217,136.6,220.2,137.8,223.3,139.4z"/>
		
			<linearGradient id="Path_3842_1_" gradientUnits="userSpaceOnUse" x1="-1068.1602" y1="-30.9515" x2="-1065.6501" y2="-30.9515" gradientTransform="matrix(79.6 0 0 34.44 85041.7578 1306.0316)">
			<stop  offset="0" style="stop-color:#F16E00"/>
			<stop  offset="1" style="stop-color:#FF7901"/>
		</linearGradient>
		<path id="Path_3842" class="st1" d="M185.1,203.7l-11,43.4c-2.9,11.4-14.4,18.2-25.8,15.4l-111.2-28
			c-11.4-2.9-18.2-14.4-15.4-25.8c1.3-5.7-2.3-11.4-8-12.7c-5.5-1.3-11,2-12.6,7.4c0,0.1,0,0.1,0,0.2c-5.7,22.7,8.1,45.8,30.8,51.5
			l111.2,28c22.7,5.7,45.8-8.1,51.6-30.8l10.9-43.3c-3.5-0.1-6.9-0.6-10.2-1.4C191.8,206.8,188.4,205.4,185.1,203.7z"/>
	</g>
	<g id="Group_479">
		<path id="Path_3843" d="M93.4,110.1l40.6,65.3h0.3v-65.3h20v97.3h-21.4l-40.5-65.2h-0.2v65.1h-20v-97.3H93.4z"/>
		<path id="Path_3844" d="M273.1,136.9v9.6h0.3c2.4-3.5,5.5-6.4,9.2-8.5c3.8-2,8-3.1,12.3-3c4.2-0.1,8.4,0.8,12.2,2.6
			c3.8,1.9,6.8,5.1,8.4,9.1c2.3-3.3,5.2-6,8.5-8.2c3.8-2.4,8.2-3.7,12.8-3.5c3.5,0,7,0.4,10.3,1.4c3,0.8,5.8,2.3,8.2,4.4
			c2.4,2.1,4.2,4.8,5.3,7.8c1.4,3.7,2,7.7,1.9,11.7v47.2h-19.4v-39.9c0-2.4-0.1-4.6-0.3-6.7c-0.1-1.9-0.6-3.8-1.5-5.5
			c-0.8-1.5-2.1-2.8-3.6-3.7c-2-1-4.2-1.5-6.5-1.4c-2.3-0.1-4.6,0.4-6.6,1.6c-1.6,1-3,2.4-4,4.1c-1,1.8-1.6,3.7-1.9,5.7
			c-0.3,2.1-0.5,4.3-0.5,6.5v39.2H299v-39.5c0-2.1,0-4.1-0.1-6.2c-0.1-1.9-0.5-3.8-1.2-5.6c-0.7-1.7-1.9-3.2-3.4-4.2
			c-2.1-1.2-4.6-1.7-7-1.6c-1.2,0.1-2.4,0.3-3.6,0.6c-1.6,0.5-3.1,1.3-4.4,2.3c-1.6,1.3-2.8,3-3.6,4.9c-1.1,2.7-1.6,5.5-1.5,8.4
			v40.9h-19.4v-70.5H273.1z"/>
		<path id="Path_3845" d="M377,158.6c0.1-4,1.3-7.9,3.4-11.3c2-3,4.6-5.4,7.6-7.2c3.2-1.9,6.8-3.2,10.4-3.9
			c3.9-0.8,7.8-1.2,11.7-1.1c3.6,0,7.2,0.3,10.8,0.8c3.4,0.5,6.8,1.4,10,2.9c2.9,1.4,5.4,3.5,7.3,6.1c2,3,3,6.6,2.9,10.3v36.7
			c0,3.1,0.2,6.1,0.5,9.1c0.2,2.3,0.8,4.5,1.9,6.5h-19.6c-0.4-1.1-0.7-2.2-0.9-3.3c-0.2-1.1-0.4-2.3-0.5-3.5
			c-3,3.1-6.8,5.4-10.9,6.7c-4.2,1.3-8.5,1.9-12.8,1.9c-3.2,0-6.3-0.4-9.4-1.2c-2.8-0.7-5.4-2-7.6-3.8c-2.2-1.7-4-4-5.1-6.5
			c-1.3-3-1.9-6.2-1.8-9.4c-0.1-3.4,0.6-6.8,2.1-9.9c1.3-2.5,3.2-4.6,5.5-6.2c2.3-1.6,4.9-2.8,7.6-3.5c2.9-0.8,5.7-1.4,8.7-1.8
			c2.9-0.4,5.8-0.8,8.6-1.1c2.5-0.2,5-0.6,7.5-1.2c1.9-0.4,3.6-1.2,5.2-2.4c1.3-1.1,2-2.8,1.8-4.6c0.1-1.7-0.3-3.4-1-5
			c-0.6-1.2-1.6-2.2-2.7-2.9c-1.2-0.7-2.6-1.2-4-1.4c-1.6-0.2-3.2-0.3-4.8-0.3c-3.2-0.2-6.3,0.7-9,2.4c-2.4,2.1-3.8,5-3.8,8.2
			L377,158.6z M421.7,172.9c-0.9,0.8-1.9,1.4-3.1,1.7c-1.3,0.4-2.6,0.8-4,1c-1.4,0.3-2.9,0.5-4.4,0.7s-3.1,0.4-4.6,0.7
			c-1.5,0.3-2.9,0.6-4.3,1.1c-1.3,0.4-2.6,1-3.7,1.8c-1,0.8-1.9,1.8-2.4,3c-0.7,1.4-1,2.9-1,4.5c0,1.5,0.3,3,1,4.4
			c0.6,1.1,1.5,2.1,2.6,2.8c1.2,0.7,2.5,1.2,3.8,1.4c1.5,0.3,3,0.4,4.5,0.4c3.1,0.2,6.1-0.5,8.9-1.9c1.9-1.1,3.5-2.7,4.6-4.6
			c1-1.7,1.6-3.5,1.8-5.4c0.2-1.4,0.3-2.9,0.3-4.4L421.7,172.9z"/>
		<path id="Path_3846" d="M506,198.4c-2,3.6-5.2,6.5-8.9,8.2c-3.9,1.7-8.2,2.6-12.5,2.5c-4.8,0.1-9.6-1-13.9-3.1
			c-3.9-2-7.3-4.8-9.9-8.3c-2.7-3.6-4.6-7.7-5.9-12.1c-1.3-4.6-2-9.4-2-14.2c0-4.6,0.7-9.2,2-13.7c1.2-4.2,3.2-8.2,5.9-11.7
			c5.5-7.3,14.2-11.4,23.4-11.2c4.1,0,8.2,0.9,11.9,2.7c3.7,1.7,6.8,4.4,8.9,7.8h0.3v-35.4h19.3v97.3h-18.4v-9H506z M505.2,163.6
			c-0.5-2.5-1.4-4.9-2.8-7.1c-1.3-2-3-3.7-5.1-5c-2.4-1.3-5.1-2-7.9-1.9c-2.8-0.1-5.5,0.6-8,1.9c-2.1,1.2-3.9,2.9-5.2,5
			c-1.4,2.2-2.3,4.6-2.9,7.2c-0.6,2.8-0.9,5.6-0.9,8.4c0,2.8,0.3,5.5,1,8.2c0.6,2.6,1.6,5.1,3.1,7.3c1.4,2.1,3.2,3.9,5.3,5.2
			c2.3,1.4,5,2.1,7.7,2c2.8,0.1,5.6-0.6,8-1.9c2.1-1.2,3.9-3,5.1-5.1c1.3-2.3,2.2-4.7,2.7-7.3c0.6-2.8,0.8-5.6,0.8-8.4
			C506.1,169.1,505.8,166.3,505.2,163.6L505.2,163.6z"/>
		<path id="Path_3847" d="M239.2,156.9c-3.2-8.9-10.1-15.9-18.9-19.2c-1.6-0.6-3.2-1.1-4.8-1.5c-3.4-0.8-6.8-1.2-10.3-1.2
			c-3.7,0-7.4,0.4-11,1.3c-1.4,0.4-2.7,0.8-4,1.3c-8.8,3.4-15.6,10.4-18.8,19.2c-1.8,4.9-2.7,10.1-2.6,15.3
			c-0.1,5.2,0.8,10.4,2.6,15.3c1.6,4.4,4.1,8.3,7.4,11.7c3.2,3.3,7.1,5.8,11.4,7.4c1.3,0.5,2.6,0.9,4,1.3c7,1.7,14.2,1.7,21.2,0.2
			c1.6-0.4,3.2-0.9,4.8-1.4c4.3-1.6,8.3-4.1,11.6-7.4c3.2-3.3,5.8-7.3,7.4-11.6c1.8-4.9,2.7-10.1,2.6-15.3
			C241.8,167,241,161.8,239.2,156.9z M221.6,180.5c-0.5,2.6-1.4,5-2.8,7.2c-0.9,1.4-2,2.7-3.3,3.7c-0.6,0.5-1.3,1-2,1.4
			c-2.5,1.4-5.4,2-8.2,1.9c-2.8,0.1-5.7-0.6-8.2-1.9c-2.1-1.2-3.9-3-5.2-5.1c-1.4-2.2-2.3-4.7-2.8-7.2c-0.5-2.7-0.8-5.5-0.8-8.2
			c0-2.8,0.3-5.6,0.8-8.3c0.5-2.6,1.4-5,2.8-7.2c0.7-1.1,1.5-2.1,2.5-3c0.9-0.8,1.8-1.5,2.8-2.1c2.5-1.4,5.3-2.1,8.2-2
			c2.9-0.1,5.7,0.6,8.2,2c0.7,0.4,1.4,0.9,2,1.4c1.3,1,2.4,2.3,3.3,3.7c1.4,2.2,2.3,4.7,2.8,7.2c0.5,2.7,0.8,5.5,0.8,8.3
			C222.5,175,222.2,177.8,221.6,180.5L221.6,180.5z"/>
	</g>
</g>
</svg>
