<svg id="Layer_1" data-name="Layer 1" xmlns="http://www.w3.org/2000/svg" xmlns:xlink="http://www.w3.org/1999/xlink" viewBox="0 0 588.24 301.59"><defs><style>.cls-1{fill:url(#linear-gradient);}.cls-2{fill:url(#linear-gradient-2);}.cls-3,.cls-4{isolation:isolate;}.cls-4{font-size:16.37px;font-family:HelveticaNeue-Bold, Helvetica Neue;font-weight:700;}.cls-4,.cls-5{fill:#fff;}</style><linearGradient id="linear-gradient" x1="-695.27" y1="726.64" x2="-691.69" y2="726.64" gradientTransform="matrix(59.05, 0, 0, -42.82, 41084.08, 31232.72)" gradientUnits="userSpaceOnUse"><stop offset="0" stop-color="#f16e00"/><stop offset="1" stop-color="#ff7901"/></linearGradient><linearGradient id="linear-gradient-2" x1="-694.92" y1="716.99" x2="-690.95" y2="716.99" gradientTransform="matrix(53.31, 0, 0, -23.04, 37077.27, 16804.33)" xlink:href="#linear-gradient"/></defs><title>nomad_logo</title><g id="Group_566" data-name="Group 566"><g id="Group_564" data-name="Group 564"><path id="Path_3849" data-name="Path 3849" class="cls-1" d="M251.55,175.86l18.25-72.34a45.07,45.07,0,0,0-32.64-54.67L161.65,29.79A56,56,0,0,0,119,36L79.63,59.56A55.94,55.94,0,0,0,53.91,94.11l-24,95.16a11.26,11.26,0,0,0,21.83,5.51l24-95.16A33.57,33.57,0,0,1,91.17,78.89l39.4-23.52a33.59,33.59,0,0,1,25.57-3.75l75.51,19.06A22.53,22.53,0,0,1,248,98l-18.29,72.53A45.07,45.07,0,0,1,241.29,172,46.54,46.54,0,0,1,251.55,175.86Z" transform="translate(-14.76 -28.06)"/><path id="Path_3850" data-name="Path 3850" class="cls-2" d="M211.12,244.05,199.5,290.12a22.54,22.54,0,0,1-27.34,16.32L54.28,276.7A22.53,22.53,0,0,1,38,249.36a11.26,11.26,0,0,0-21.83-5.5h0a45.07,45.07,0,0,0,32.64,54.67l117.88,29.74a45.07,45.07,0,0,0,54.68-32.64l11.57-45.88a48.49,48.49,0,0,1-10.85-1.5A46.89,46.89,0,0,1,211.12,244.05Z" transform="translate(-14.76 -28.06)"/></g><g id="TM" class="cls-3"><text class="cls-4" transform="translate(563.39 112.07)">TM</text></g><g id="Group_565" data-name="Group 565"><path id="Path_3851" data-name="Path 3851" class="cls-5" d="M113.77,144.8,156.83,214h.29V144.8h21.24V248H155.69l-42.93-69.09h-.29V248H91.22V144.8Z" transform="translate(-14.76 -28.06)"/><path id="Path_3852" data-name="Path 3852" class="cls-5" d="M304.41,173.27v10.12h.29a29.29,29.29,0,0,1,9.76-9,26.36,26.36,0,0,1,13.09-3.18A30,30,0,0,1,340.49,174a18.17,18.17,0,0,1,8.89,9.69,32,32,0,0,1,9-8.68,24.06,24.06,0,0,1,13.5-3.75,39.64,39.64,0,0,1,11,1.44,22,22,0,0,1,8.67,4.63,21.24,21.24,0,0,1,5.64,8.31,33.8,33.8,0,0,1,2,12.36v50H378.71V205.66q0-3.76-.29-7.09a15.16,15.16,0,0,0-1.59-5.78,9.59,9.59,0,0,0-3.83-3.9,13.7,13.7,0,0,0-6.86-1.45,13.08,13.08,0,0,0-7,1.66,12,12,0,0,0-4.2,4.33,17.39,17.39,0,0,0-2,6.08,46.28,46.28,0,0,0-.51,6.86V248H331.88V206.06q0-3.31-.15-6.57a18.4,18.4,0,0,0-1.23-6,9.14,9.14,0,0,0-3.61-4.41,13.58,13.58,0,0,0-7.44-1.66,15.06,15.06,0,0,0-3.83.65,12.76,12.76,0,0,0-4.63,2.45,14.44,14.44,0,0,0-3.83,5.21,21.31,21.31,0,0,0-1.59,8.89V248H285.05V173.27Z" transform="translate(-14.76 -28.06)"/><path id="Path_3853" data-name="Path 3853" class="cls-5" d="M414.55,196.24a23.79,23.79,0,0,1,3.61-12,24.69,24.69,0,0,1,8.09-7.66,35.15,35.15,0,0,1,11.05-4.12,62.57,62.57,0,0,1,12.36-1.23,83.85,83.85,0,0,1,11.42.79,35,35,0,0,1,10.55,3.11,20.92,20.92,0,0,1,7.81,6.43,18,18,0,0,1,3,10.91v38.88a76.45,76.45,0,0,0,.58,9.68,17.48,17.48,0,0,0,2,7H464.26a28.83,28.83,0,0,1-.94-3.54,32.88,32.88,0,0,1-.51-3.68,26.77,26.77,0,0,1-11.56,7.08,46.65,46.65,0,0,1-13.59,2,36.49,36.49,0,0,1-10-1.3,22.7,22.7,0,0,1-8.1-4.05,18.81,18.81,0,0,1-5.42-6.95,23.46,23.46,0,0,1-1.95-10,21.76,21.76,0,0,1,2.24-10.48,18.73,18.73,0,0,1,5.78-6.57,26,26,0,0,1,8.09-3.68,87.67,87.67,0,0,1,9.18-2q4.62-.72,9.11-1.15a55.12,55.12,0,0,0,7.95-1.3,13.82,13.82,0,0,0,5.5-2.53,5.57,5.57,0,0,0,1.88-4.84,10.81,10.81,0,0,0-1.08-5.28,7.94,7.94,0,0,0-2.89-3,11.25,11.25,0,0,0-4.19-1.45,34,34,0,0,0-5.14-.36,15.57,15.57,0,0,0-9.53,2.6,11.61,11.61,0,0,0-4.05,8.68ZM462,211.42a9.25,9.25,0,0,1-3.26,1.81,33.45,33.45,0,0,1-4.19,1.08c-1.49.29-3.06.53-4.7.72s-3.27.43-4.91.72a37.45,37.45,0,0,0-4.55,1.16,13.9,13.9,0,0,0-3.91,2,9.4,9.4,0,0,0-2.67,3.11,10,10,0,0,0-1,4.77,9.49,9.49,0,0,0,1,4.62,7.7,7.7,0,0,0,2.75,3,11.71,11.71,0,0,0,4,1.52,26.28,26.28,0,0,0,4.77.43,18.08,18.08,0,0,0,9.41-2,13.48,13.48,0,0,0,4.91-4.84,15.38,15.38,0,0,0,2-5.71,39.58,39.58,0,0,0,.36-4.62Z" transform="translate(-14.76 -28.06)"/><path id="Path_3854" data-name="Path 3854" class="cls-5" d="M551.43,238.46A21.14,21.14,0,0,1,542,247.2a31.55,31.55,0,0,1-13.23,2.68A32,32,0,0,1,514,246.63a29.67,29.67,0,0,1-10.48-8.82A40,40,0,0,1,497.31,225a53.44,53.44,0,0,1-2.1-15,50.25,50.25,0,0,1,2.1-14.52,37.75,37.75,0,0,1,6.21-12.36,30.19,30.19,0,0,1,24.79-11.87A29.46,29.46,0,0,1,541,174.06a22,22,0,0,1,9.46,8.31h.29V144.8h20.53V248H551.73v-9.54Zm-.87-36.93a21.94,21.94,0,0,0-3-7.52,16.67,16.67,0,0,0-5.43-5.27,15.91,15.91,0,0,0-8.38-2,16.69,16.69,0,0,0-8.53,2,16,16,0,0,0-5.56,5.35,23.41,23.41,0,0,0-3,7.58,40.88,40.88,0,0,0-.95,8.89,38.49,38.49,0,0,0,1,8.68A23.43,23.43,0,0,0,520,227a18,18,0,0,0,5.64,5.49,15.24,15.24,0,0,0,8.18,2.1,16.29,16.29,0,0,0,8.45-2,15.32,15.32,0,0,0,5.43-5.42,24.57,24.57,0,0,0,2.89-7.73,46.44,46.44,0,0,0,.87-9,45.18,45.18,0,0,0-.89-8.91Z" transform="translate(-14.76 -28.06)"/><path id="Path_3855" data-name="Path 3855" class="cls-5" d="M268.43,194.45a34.09,34.09,0,0,0-20-20.38,38.29,38.29,0,0,0-5.08-1.59,46.49,46.49,0,0,0-10.9-1.23,46,46,0,0,0-11.62,1.43,37.33,37.33,0,0,0-4.27,1.39,34.19,34.19,0,0,0-19.95,20.38,46,46,0,0,0-2.75,16.26,45.12,45.12,0,0,0,2.75,16.19,34.89,34.89,0,0,0,7.8,12.36,34.13,34.13,0,0,0,12.14,7.88,38,38,0,0,0,4.28,1.36,46.89,46.89,0,0,0,11.62,1.39,48.08,48.08,0,0,0,10.89-1.2,38.69,38.69,0,0,0,5.08-1.55,33.94,33.94,0,0,0,12.21-7.87,35.23,35.23,0,0,0,7.81-12.36,45.6,45.6,0,0,0,2.75-16.19A46.21,46.21,0,0,0,268.43,194.45Zm-18.65,25a23.17,23.17,0,0,1-3,7.66,15.33,15.33,0,0,1-3.49,3.95,15.12,15.12,0,0,1-2.15,1.47,17.37,17.37,0,0,1-8.74,2,16.91,16.91,0,0,1-8.67-2,16,16,0,0,1-5.57-5.42,23.37,23.37,0,0,1-3-7.66,44.21,44.21,0,0,1-.87-8.74,45.09,45.09,0,0,1,.87-8.82,22.52,22.52,0,0,1,3-7.66,16.62,16.62,0,0,1,2.62-3.17,16.92,16.92,0,0,1,2.95-2.25,16.55,16.55,0,0,1,8.67-2.09,17,17,0,0,1,8.75,2.09,18.79,18.79,0,0,1,2.15,1.5,16.3,16.3,0,0,1,3.49,3.92,22.52,22.52,0,0,1,3,7.66,45.09,45.09,0,0,1,.87,8.82A44.21,44.21,0,0,1,249.78,219.45Z" transform="translate(-14.76 -28.06)"/></g></g></svg>